<svg width="163.172" height="23.376" viewBox="0 0 163.172 23.376" xmlns="http://www.w3.org/2000/svg"><g id="svgGroup" stroke-linecap="round" fill-rule="evenodd" font-size="9pt" stroke="#000" stroke-width="0.25mm" fill="#000" style="stroke:#000;stroke-width:0.25mm;fill:#000"><path d="M 140.891 0.313 L 140.891 23.063 L 140.047 23.063 L 125.359 1.75 L 125.359 23.063 L 124.5 23.063 L 124.5 0.313 L 125.359 0.313 L 140.047 21.578 L 140.047 0.313 L 140.891 0.313 Z M 163.172 12.75 L 163.172 20.625 Q 162.313 21.813 160.156 22.594 A 13.103 13.103 0 0 1 156.908 23.306 A 16.018 16.018 0 0 1 155.406 23.375 A 8.856 8.856 0 0 1 152.559 22.929 A 7.968 7.968 0 0 1 150.891 22.141 A 8.277 8.277 0 0 1 148.006 19.069 A 9.985 9.985 0 0 1 147.789 18.657 A 10.982 10.982 0 0 1 146.744 15.115 A 13.638 13.638 0 0 1 146.641 13.563 L 146.641 9.657 A 12.452 12.452 0 0 1 146.963 6.77 A 10.311 10.311 0 0 1 147.719 4.641 A 8.466 8.466 0 0 1 149.408 2.261 A 7.766 7.766 0 0 1 150.75 1.211 A 8.126 8.126 0 0 1 154.97 0.002 A 9.711 9.711 0 0 1 155.141 0 A 10.829 10.829 0 0 1 157.552 0.254 A 7.496 7.496 0 0 1 160.664 1.735 A 6.671 6.671 0 0 1 163.027 5.739 A 8.908 8.908 0 0 1 163.141 6.469 L 162.297 6.469 A 7.729 7.729 0 0 0 161.75 4.538 A 5.745 5.745 0 0 0 160.031 2.297 A 6.432 6.432 0 0 0 157.655 1.142 Q 156.734 0.9 155.65 0.855 A 12.153 12.153 0 0 0 155.141 0.844 A 7.796 7.796 0 0 0 152.432 1.297 A 6.801 6.801 0 0 0 149.594 3.297 Q 147.484 5.75 147.484 9.75 L 147.484 13.375 A 12.303 12.303 0 0 0 147.756 16.014 A 9.897 9.897 0 0 0 148.477 18.141 A 8.04 8.04 0 0 0 149.941 20.294 A 7.224 7.224 0 0 0 151.273 21.383 A 7.386 7.386 0 0 0 154.832 22.514 A 9.062 9.062 0 0 0 155.406 22.532 A 13.64 13.64 0 0 0 158.259 22.242 A 11.84 11.84 0 0 0 159.641 21.86 Q 161.594 21.188 162.328 20.235 L 162.328 13.61 L 155.375 13.61 L 155.375 12.75 L 163.172 12.75 Z M 67.672 23.063 L 65.125 16.266 L 53.984 16.266 L 51.453 23.063 L 50.531 23.063 L 59.047 0.313 L 60.078 0.313 L 68.594 23.063 L 67.672 23.063 Z M 0.859 0.313 L 0.859 22.219 L 12.531 22.219 L 12.531 23.063 L 0 23.063 L 0 0.313 L 0.859 0.313 Z M 86.281 23.063 L 79.906 23.063 L 79.906 0.313 L 86.203 0.313 A 9.598 9.598 0 0 1 89.634 0.917 A 9.003 9.003 0 0 1 90.984 1.563 A 8.824 8.824 0 0 1 94.344 5.071 A 10.483 10.483 0 0 1 95.555 9.264 A 12.566 12.566 0 0 1 95.594 10.125 L 95.594 13.078 A 11.633 11.633 0 0 1 95.172 16.257 A 10.107 10.107 0 0 1 94.398 18.203 Q 93.203 20.485 91.063 21.766 A 9.206 9.206 0 0 1 86.446 23.061 A 10.899 10.899 0 0 1 86.281 23.063 Z M 40.281 9.985 L 40.281 13.391 A 14.064 14.064 0 0 1 40.02 16.164 A 10.917 10.917 0 0 1 39.227 18.617 A 8.559 8.559 0 0 1 37.658 20.953 A 7.698 7.698 0 0 1 36.219 22.133 A 7.985 7.985 0 0 1 32.519 23.343 A 9.897 9.897 0 0 1 31.719 23.375 Q 27.875 23.375 25.5 20.641 Q 23.258 18.06 23.132 13.78 A 17.522 17.522 0 0 1 23.125 13.266 L 23.125 9.985 A 13.985 13.985 0 0 1 23.389 7.211 A 10.994 10.994 0 0 1 24.18 4.766 A 8.539 8.539 0 0 1 25.739 2.436 A 7.675 7.675 0 0 1 27.195 1.242 A 8.044 8.044 0 0 1 31.025 0.022 A 9.878 9.878 0 0 1 31.687 0 A 8.869 8.869 0 0 1 34.367 0.393 A 7.76 7.76 0 0 1 36.195 1.242 A 7.937 7.937 0 0 1 38.939 4.218 A 9.736 9.736 0 0 1 39.219 4.774 Q 40.281 7.063 40.281 9.985 Z M 86.328 1.157 L 80.75 1.157 L 80.75 22.219 L 86.203 22.219 A 8.364 8.364 0 0 0 90.555 21.055 Q 92.516 19.891 93.625 17.805 A 9.698 9.698 0 0 0 94.733 13.724 A 11.5 11.5 0 0 0 94.75 13.172 L 94.75 10.25 A 10.326 10.326 0 0 0 94.304 7.179 A 9.269 9.269 0 0 0 93.664 5.625 A 8.132 8.132 0 0 0 90.633 2.367 Q 88.688 1.188 86.328 1.157 Z M 39.438 13.266 L 39.438 9.953 Q 39.438 6.334 37.826 3.972 A 7.977 7.977 0 0 0 37.344 3.336 A 6.851 6.851 0 0 0 32.396 0.87 A 9.58 9.58 0 0 0 31.687 0.844 A 8.048 8.048 0 0 0 29.066 1.253 A 6.704 6.704 0 0 0 26.078 3.321 A 8.387 8.387 0 0 0 24.414 6.564 Q 24.072 7.812 24.002 9.293 A 16.408 16.408 0 0 0 23.984 10.063 L 23.984 13.391 A 13.318 13.318 0 0 0 24.206 15.876 A 10.21 10.21 0 0 0 24.93 18.196 A 7.873 7.873 0 0 0 26.204 20.19 A 6.831 6.831 0 0 0 27.625 21.407 A 7.081 7.081 0 0 0 30.687 22.474 A 8.997 8.997 0 0 0 31.719 22.532 A 8.225 8.225 0 0 0 34.275 22.152 A 6.633 6.633 0 0 0 37.359 20.047 Q 39.194 17.854 39.409 14.248 A 16.506 16.506 0 0 0 39.437 13.266 Z M 109.969 0.313 L 109.969 23.063 L 109.125 23.063 L 109.125 0.313 L 109.969 0.313 Z M 59.563 1.328 L 54.297 15.422 L 64.813 15.422 L 59.563 1.328 Z" vector-effect="non-scaling-stroke"/></g></svg>