<svg xmlns="http://www.w3.org/2000/svg" xmlns:xlink="http://www.w3.org/1999/xlink" width="664.20703125" height="84.375"><path fill="white" stroke="none" class="path" d="M41.31 15.61L41.31 21.16L24.86 21.16L24.86 66.80L18.14 66.80L18.14 21.16L1.72 21.16L1.72 15.61L41.31 15.61ZM54.39 12.80L54.39 33.36Q58.71 28.05 65.64 28.05L65.64 28.05Q77.70 28.05 77.80 41.66L77.80 41.66L77.80 66.80L71.30 66.80L71.30 41.63Q71.26 37.51 69.42 35.54Q67.57 33.57 63.67 33.57L63.67 33.57Q60.50 33.57 58.11 35.26Q55.72 36.95 54.39 39.69L54.39 39.69L54.39 66.80L47.88 66.80L47.88 12.80L54.39 12.80ZM103.32 67.50L103.32 67.50Q95.59 67.50 90.74 62.42Q85.89 57.34 85.89 48.83L85.89 48.83L85.89 47.64Q85.89 41.98 88.05 37.53Q90.21 33.08 94.10 30.57Q97.98 28.05 102.52 28.05L102.52 28.05Q109.93 28.05 114.05 32.94Q118.16 37.83 118.16 46.93L118.16 46.93L118.16 49.64L92.39 49.64Q92.53 55.27 95.68 58.73Q98.82 62.19 103.68 62.19L103.68 62.19Q107.12 62.19 109.51 60.79Q111.90 59.38 113.70 57.06L113.70 57.06L117.67 60.15Q112.89 67.50 103.32 67.50ZM102.52 33.40L102.52 33.40Q98.58 33.40 95.91 36.26Q93.23 39.13 92.60 44.30L92.60 44.30L111.66 44.30L111.66 43.80Q111.38 38.85 108.98 36.12Q106.59 33.40 102.52 33.40ZM144.07 28.55L144.07 34.59Q142.59 34.35 140.87 34.35L140.87 34.35Q134.47 34.35 132.19 39.80L132.19 39.80L132.19 66.80L125.68 66.80L125.68 28.76L132.01 28.76L132.12 33.15Q135.32 28.05 141.19 28.05L141.19 28.05Q143.09 28.05 144.07 28.55L144.07 28.55ZM165.16 67.50L165.16 67.50Q157.43 67.50 152.58 62.42Q147.73 57.34 147.73 48.83L147.73 48.83L147.73 47.64Q147.73 41.98 149.89 37.53Q152.05 33.08 155.94 30.57Q159.82 28.05 164.36 28.05L164.36 28.05Q171.77 28.05 175.89 32.94Q180 37.83 180 46.93L180 46.93L180 49.64L154.23 49.64Q154.37 55.27 157.52 58.73Q160.66 62.19 165.52 62.19L165.52 62.19Q168.96 62.19 171.35 60.79Q173.74 59.38 175.54 57.06L175.54 57.06L179.51 60.15Q174.73 67.50 165.16 67.50ZM164.36 33.40L164.36 33.40Q160.42 33.40 157.75 36.26Q155.07 39.13 154.44 44.30L154.44 44.30L173.50 44.30L173.50 43.80Q173.21 38.85 170.82 36.12Q168.43 33.40 164.36 33.40ZM212.41 28.76L212.41 66.80L205.91 66.80L205.91 28.76L212.41 28.76ZM205.38 18.67L205.38 18.67Q205.38 17.09 206.35 16.00Q207.32 14.91 209.21 14.91Q211.11 14.91 212.10 16.00Q213.08 17.09 213.08 18.67Q213.08 20.25 212.10 21.30Q211.11 22.36 209.21 22.36Q207.32 22.36 206.35 21.30Q205.38 20.25 205.38 18.67ZM244.97 56.71L244.97 56.71Q244.97 54.07 242.98 52.61Q241.00 51.15 236.06 50.10Q231.12 49.04 228.22 47.57Q225.32 46.09 223.93 44.05Q222.54 42.01 222.54 39.20L222.54 39.20Q222.54 34.52 226.49 31.29Q230.45 28.05 236.60 28.05L236.60 28.05Q243.07 28.05 247.10 31.39Q251.12 34.73 251.12 39.94L251.12 39.94L244.58 39.94Q244.58 37.27 242.31 35.33Q240.05 33.40 236.60 33.40L236.60 33.40Q233.05 33.40 231.05 34.95Q229.04 36.49 229.04 38.99L229.04 38.99Q229.04 41.34 230.91 42.54Q232.77 43.73 237.64 44.82Q242.51 45.91 245.53 47.43Q248.55 48.94 250.01 51.06Q251.47 53.19 251.47 56.25L251.47 56.25Q251.47 61.35 247.39 64.42Q243.32 67.50 236.81 67.50L236.81 67.50Q232.24 67.50 228.73 65.88Q225.21 64.27 223.22 61.37Q221.24 58.46 221.24 55.09L221.24 55.09L227.74 55.09Q227.92 58.36 230.36 60.28Q232.80 62.19 236.81 62.19L236.81 62.19Q240.50 62.19 242.74 60.70Q244.97 59.20 244.97 56.71ZM277.77 28.76L283.92 28.76L284.13 33.54Q288.49 28.05 295.52 28.05L295.52 28.05Q307.58 28.05 307.69 41.66L307.69 41.66L307.69 66.80L301.18 66.80L301.18 41.63Q301.15 37.51 299.30 35.54Q297.46 33.57 293.55 33.57L293.55 33.57Q290.39 33.57 288 35.26Q285.61 36.95 284.27 39.69L284.27 39.69L284.27 66.80L277.77 66.80L277.77 28.76ZM315.77 47.88L315.77 47.43Q315.77 41.84 317.97 37.37Q320.17 32.91 324.09 30.48Q328.01 28.05 333.04 28.05L333.04 28.05Q340.80 28.05 345.60 33.43Q350.40 38.81 350.40 47.74L350.40 47.74L350.40 48.20Q350.40 53.75 348.28 58.17Q346.15 62.58 342.19 65.04Q338.24 67.50 333.11 67.50L333.11 67.50Q325.37 67.50 320.57 62.12Q315.77 56.74 315.77 47.88L315.77 47.88ZM322.31 48.20L322.31 48.20Q322.31 54.53 325.25 58.36Q328.18 62.19 333.11 62.19L333.11 62.19Q338.06 62.19 340.98 58.31Q343.90 54.42 343.90 47.43L343.90 47.43Q343.90 41.17 340.93 37.28Q337.96 33.40 333.04 33.40L333.04 33.40Q328.22 33.40 325.27 37.23Q322.31 41.06 322.31 48.20ZM374.80 47.95L374.80 47.46Q374.80 38.71 378.95 33.38Q383.10 28.05 389.81 28.05L389.81 28.05Q396.49 28.05 400.39 32.63L400.39 32.63L400.39 12.80L406.90 12.80L406.90 66.80L400.92 66.80L400.61 62.72Q396.70 67.50 389.74 67.50L389.74 67.50Q383.13 67.50 378.97 62.09Q374.80 56.67 374.80 47.95L374.80 47.95ZM381.30 48.20L381.30 48.20Q381.30 54.67 383.98 58.32Q386.65 61.98 391.36 61.98L391.36 61.98Q397.55 61.98 400.39 56.43L400.39 56.43L400.39 38.95Q397.48 33.57 391.43 33.57L391.43 33.57Q386.65 33.57 383.98 37.27Q381.30 40.96 381.30 48.20ZM447.29 66.80L440.47 66.80Q439.91 65.67 439.56 62.79L439.56 62.79Q435.02 67.50 428.73 67.50L428.73 67.50Q423.11 67.50 419.50 64.32Q415.90 61.14 415.90 56.25L415.90 56.25Q415.90 50.31 420.42 47.02Q424.93 43.73 433.13 43.73L433.13 43.73L439.45 43.73L439.45 40.75Q439.45 37.34 437.41 35.31Q435.38 33.29 431.40 33.29L431.40 33.29Q427.92 33.29 425.57 35.05Q423.21 36.81 423.21 39.30L423.21 39.30L416.67 39.30Q416.67 36.46 418.69 33.80Q420.71 31.15 424.18 29.60Q427.64 28.05 431.79 28.05L431.79 28.05Q438.36 28.05 442.09 31.34Q445.82 34.63 445.96 40.39L445.96 40.39L445.96 57.90Q445.96 63.14 447.29 66.23L447.29 66.23L447.29 66.80ZM429.68 61.84L429.68 61.84Q432.74 61.84 435.48 60.26Q438.22 58.68 439.45 56.14L439.45 56.14L439.45 48.34L434.36 48.34Q422.40 48.34 422.40 55.34L422.40 55.34Q422.40 58.39 424.44 60.12Q426.48 61.84 429.68 61.84ZM474.54 28.55L474.54 34.59Q473.06 34.35 471.34 34.35L471.34 34.35Q464.94 34.35 462.66 39.80L462.66 39.80L462.66 66.80L456.15 66.80L456.15 28.76L462.48 28.76L462.59 33.15Q465.79 28.05 471.66 28.05L471.66 28.05Q473.55 28.05 474.54 28.55L474.54 28.55ZM504.39 66.80L491.13 49.18L487.05 53.44L487.05 66.80L480.55 66.80L480.55 12.80L487.05 12.80L487.05 45.46L490.54 41.27L502.38 28.76L510.29 28.76L495.49 44.65L512.02 66.80L504.39 66.80ZM517.01 28.76L523.16 28.76L523.37 33.54Q527.73 28.05 534.76 28.05L534.76 28.05Q546.82 28.05 546.93 41.66L546.93 41.66L546.93 66.80L540.42 66.80L540.42 41.63Q540.39 37.51 538.54 35.54Q536.70 33.57 532.79 33.57L532.79 33.57Q529.63 33.57 527.24 35.26Q524.85 36.95 523.51 39.69L523.51 39.69L523.51 66.80L517.01 66.80L517.01 28.76ZM572.52 67.50L572.52 67.50Q564.79 67.50 559.93 62.42Q555.08 57.34 555.08 48.83L555.08 48.83L555.08 47.64Q555.08 41.98 557.24 37.53Q559.41 33.08 563.29 30.57Q567.18 28.05 571.71 28.05L571.71 28.05Q579.13 28.05 583.24 32.94Q587.36 37.83 587.36 46.93L587.36 46.93L587.36 49.64L561.59 49.64Q561.73 55.27 564.87 58.73Q568.02 62.19 572.87 62.19L572.87 62.19Q576.32 62.19 578.71 60.79Q581.10 59.38 582.89 57.06L582.89 57.06L586.86 60.15Q582.08 67.50 572.52 67.50ZM571.71 33.40L571.71 33.40Q567.77 33.40 565.10 36.26Q562.43 39.13 561.80 44.30L561.80 44.30L580.85 44.30L580.85 43.80Q580.57 38.85 578.18 36.12Q575.79 33.40 571.71 33.40ZM617.03 56.71L617.03 56.71Q617.03 54.07 615.04 52.61Q613.05 51.15 608.12 50.10Q603.18 49.04 600.28 47.57Q597.38 46.09 595.99 44.05Q594.60 42.01 594.60 39.20L594.60 39.20Q594.60 34.52 598.55 31.29Q602.51 28.05 608.66 28.05L608.66 28.05Q615.13 28.05 619.15 31.39Q623.18 34.73 623.18 39.94L623.18 39.94L616.64 39.94Q616.64 37.27 614.37 35.33Q612.11 33.40 608.66 33.40L608.66 33.40Q605.11 33.40 603.11 34.95Q601.10 36.49 601.10 38.99L601.10 38.99Q601.10 41.34 602.96 42.54Q604.83 43.73 609.70 44.82Q614.57 45.91 617.59 47.43Q620.61 48.94 622.07 51.06Q623.53 53.19 623.53 56.25L623.53 56.25Q623.53 61.35 619.45 64.42Q615.38 67.50 608.87 67.50L608.87 67.50Q604.30 67.50 600.79 65.88Q597.27 64.27 595.28 61.37Q593.30 58.46 593.30 55.09L593.30 55.09L599.80 55.09Q599.98 58.36 602.42 60.28Q604.86 62.19 608.87 62.19L608.87 62.19Q612.56 62.19 614.79 60.70Q617.03 59.20 617.03 56.71ZM654.15 56.71L654.15 56.71Q654.15 54.07 652.17 52.61Q650.18 51.15 645.24 50.10Q640.30 49.04 637.40 47.57Q634.50 46.09 633.11 44.05Q631.72 42.01 631.72 39.20L631.72 39.20Q631.72 34.52 635.68 31.29Q639.63 28.05 645.79 28.05L645.79 28.05Q652.25 28.05 656.28 31.39Q660.30 34.73 660.30 39.94L660.30 39.94L653.77 39.94Q653.77 37.27 651.50 35.33Q649.23 33.40 645.79 33.40L645.79 33.40Q642.23 33.40 640.23 34.95Q638.23 36.49 638.23 38.99L638.23 38.99Q638.23 41.34 640.09 42.54Q641.95 43.73 646.82 44.82Q651.69 45.91 654.71 47.43Q657.74 48.94 659.20 51.06Q660.66 53.19 660.66 56.25L660.66 56.25Q660.66 61.35 656.58 64.42Q652.50 67.50 646.00 67.50L646.00 67.50Q641.43 67.50 637.91 65.88Q634.39 64.27 632.41 61.37Q630.42 58.46 630.42 55.09L630.42 55.09L636.93 55.09Q637.10 58.36 639.54 60.28Q641.99 62.19 646.00 62.19L646.00 62.19Q649.69 62.19 651.92 60.70Q654.15 59.20 654.15 56.71Z"/></svg>