<svg xmlns="http://www.w3.org/2000/svg" xmlns:xlink="http://www.w3.org/1999/xlink" width="576.03515625" height="84.375"><path fill="white" stroke="none" class="path" d="M13.18 15.61L13.18 66.80L6.43 66.80L6.43 15.61L13.18 15.61ZM34.21 66.80L27.70 66.80L27.70 33.79L21.69 33.79L21.69 28.76L27.70 28.76L27.70 24.86Q27.70 18.74 30.97 15.40Q34.24 12.06 40.22 12.06L40.22 12.06Q42.47 12.06 44.68 12.66L44.68 12.66L44.33 17.93Q42.68 17.61 40.82 17.61L40.82 17.61Q37.65 17.61 35.93 19.46Q34.21 21.30 34.21 24.75L34.21 24.75L34.21 28.76L42.33 28.76L42.33 33.79L34.21 33.79L34.21 66.80ZM91.97 28.76L101.00 57.83L108.32 28.76L114.82 28.76L103.75 66.80L98.47 66.80L89.23 37.97L80.23 66.80L74.95 66.80L63.91 28.76L70.38 28.76L77.87 57.23L86.73 28.76L91.97 28.76ZM127.93 12.80L127.93 33.36Q132.26 28.05 139.18 28.05L139.18 28.05Q151.24 28.05 151.35 41.66L151.35 41.66L151.35 66.80L144.84 66.80L144.84 41.63Q144.81 37.51 142.96 35.54Q141.12 33.57 137.21 33.57L137.21 33.57Q134.05 33.57 131.66 35.26Q129.27 36.95 127.93 39.69L127.93 39.69L127.93 66.80L121.43 66.80L121.43 12.80L127.93 12.80ZM168.15 28.76L168.15 66.80L161.65 66.80L161.65 28.76L168.15 28.76ZM161.12 18.67L161.12 18.67Q161.12 17.09 162.09 16.00Q163.05 14.91 164.95 14.91Q166.85 14.91 167.84 16.00Q168.82 17.09 168.82 18.67Q168.82 20.25 167.84 21.30Q166.85 22.36 164.95 22.36Q163.05 22.36 162.09 21.30Q161.12 20.25 161.12 18.67ZM180.88 19.55L187.38 19.55L187.38 28.76L194.48 28.76L194.48 33.79L187.38 33.79L187.38 57.38Q187.38 59.66 188.33 60.80Q189.28 61.95 191.57 61.95L191.57 61.95Q192.69 61.95 194.66 61.52L194.66 61.52L194.66 66.80Q192.09 67.50 189.67 67.50L189.67 67.50Q185.31 67.50 183.09 64.86Q180.88 62.23 180.88 57.38L180.88 57.38L180.88 33.79L173.95 33.79L173.95 28.76L180.88 28.76L180.88 19.55ZM217.86 67.50L217.86 67.50Q210.13 67.50 205.28 62.42Q200.43 57.34 200.43 48.83L200.43 48.83L200.43 47.64Q200.43 41.98 202.59 37.53Q204.75 33.08 208.63 30.57Q212.52 28.05 217.05 28.05L217.05 28.05Q224.47 28.05 228.59 32.94Q232.70 37.83 232.70 46.93L232.70 46.93L232.70 49.64L206.93 49.64Q207.07 55.27 210.22 58.73Q213.36 62.19 218.21 62.19L218.21 62.19Q221.66 62.19 224.05 60.79Q226.44 59.38 228.23 57.06L228.23 57.06L232.21 60.15Q227.43 67.50 217.86 67.50ZM217.05 33.40L217.05 33.40Q213.12 33.40 210.45 36.26Q207.77 39.13 207.14 44.30L207.14 44.30L226.20 44.30L226.20 43.80Q225.91 38.85 223.52 36.12Q221.13 33.40 217.05 33.40ZM265.11 28.76L265.11 66.80L258.61 66.80L258.61 28.76L265.11 28.76ZM258.08 18.67L258.08 18.67Q258.08 17.09 259.05 16.00Q260.02 14.91 261.91 14.91Q263.81 14.91 264.80 16.00Q265.78 17.09 265.78 18.67Q265.78 20.25 264.80 21.30Q263.81 22.36 261.91 22.36Q260.02 22.36 259.05 21.30Q258.08 20.25 258.08 18.67ZM297.67 56.71L297.67 56.71Q297.67 54.07 295.68 52.61Q293.70 51.15 288.76 50.10Q283.82 49.04 280.92 47.57Q278.02 46.09 276.63 44.05Q275.24 42.01 275.24 39.20L275.24 39.20Q275.24 34.52 279.19 31.29Q283.15 28.05 289.30 28.05L289.30 28.05Q295.77 28.05 299.79 31.39Q303.82 34.73 303.82 39.94L303.82 39.94L297.28 39.94Q297.28 37.27 295.01 35.33Q292.75 33.40 289.30 33.40L289.30 33.40Q285.75 33.40 283.75 34.95Q281.74 36.49 281.74 38.99L281.74 38.99Q281.74 41.34 283.61 42.54Q285.47 43.73 290.34 44.82Q295.21 45.91 298.23 47.43Q301.25 48.94 302.71 51.06Q304.17 53.19 304.17 56.25L304.17 56.25Q304.17 61.35 300.09 64.42Q296.02 67.50 289.51 67.50L289.51 67.50Q284.94 67.50 281.43 65.88Q277.91 64.27 275.92 61.37Q273.94 58.46 273.94 55.09L273.94 55.09L280.44 55.09Q280.62 58.36 283.06 60.28Q285.50 62.19 289.51 62.19L289.51 62.19Q293.20 62.19 295.44 60.70Q297.67 59.20 297.67 56.71ZM360.77 66.80L353.95 66.80Q353.39 65.67 353.04 62.79L353.04 62.79Q348.50 67.50 342.21 67.50L342.21 67.50Q336.59 67.50 332.98 64.32Q329.38 61.14 329.38 56.25L329.38 56.25Q329.38 50.31 333.90 47.02Q338.41 43.73 346.61 43.73L346.61 43.73L352.93 43.73L352.93 40.75Q352.93 37.34 350.89 35.31Q348.86 33.29 344.88 33.29L344.88 33.29Q341.40 33.29 339.05 35.05Q336.69 36.81 336.69 39.30L336.69 39.30L330.15 39.30Q330.15 36.46 332.17 33.80Q334.20 31.15 337.66 29.60Q341.12 28.05 345.27 28.05L345.27 28.05Q351.84 28.05 355.57 31.34Q359.30 34.63 359.44 40.39L359.44 40.39L359.44 57.90Q359.44 63.14 360.77 66.23L360.77 66.23L360.77 66.80ZM343.16 61.84L343.16 61.84Q346.22 61.84 348.96 60.26Q351.70 58.68 352.93 56.14L352.93 56.14L352.93 48.34L347.84 48.34Q335.88 48.34 335.88 55.34L335.88 55.34Q335.88 58.39 337.92 60.12Q339.96 61.84 343.16 61.84ZM376.70 12.80L376.70 66.80L370.20 66.80L370.20 12.80L376.70 12.80ZM394.17 12.80L394.17 66.80L387.67 66.80L387.67 12.80L394.17 12.80ZM446.03 66.80L445.89 63.04Q442.09 67.50 434.74 67.50L434.74 67.50Q428.66 67.50 425.48 63.97Q422.30 60.43 422.26 53.51L422.26 53.51L422.26 28.76L428.77 28.76L428.77 53.33Q428.77 61.98 435.80 61.98L435.80 61.98Q443.25 61.98 445.71 56.43L445.71 56.43L445.71 28.76L452.21 28.76L452.21 66.80L446.03 66.80ZM462.09 28.76L468.25 28.76L468.46 33.54Q472.82 28.05 479.85 28.05L479.85 28.05Q491.91 28.05 492.01 41.66L492.01 41.66L492.01 66.80L485.51 66.80L485.51 41.63Q485.47 37.51 483.63 35.54Q481.78 33.57 477.88 33.57L477.88 33.57Q474.71 33.57 472.32 35.26Q469.93 36.95 468.60 39.69L468.60 39.69L468.60 66.80L462.09 66.80L462.09 28.76ZM508.89 28.76L508.89 66.80L502.38 66.80L502.38 28.76L508.89 28.76ZM501.86 18.67L501.86 18.67Q501.86 17.09 502.82 16.00Q503.79 14.91 505.69 14.91Q507.59 14.91 508.57 16.00Q509.55 17.09 509.55 18.67Q509.55 20.25 508.57 21.30Q507.59 22.36 505.69 22.36Q503.79 22.36 502.82 21.30Q501.86 20.25 501.86 18.67ZM521.61 19.55L528.12 19.55L528.12 28.76L535.22 28.76L535.22 33.79L528.12 33.79L528.12 57.38Q528.12 59.66 529.07 60.80Q530.02 61.95 532.30 61.95L532.30 61.95Q533.43 61.95 535.39 61.52L535.39 61.52L535.39 66.80Q532.83 67.50 530.40 67.50L530.40 67.50Q526.04 67.50 523.83 64.86Q521.61 62.23 521.61 57.38L521.61 57.38L521.61 33.79L514.69 33.79L514.69 28.76L521.61 28.76L521.61 19.55ZM558.60 67.50L558.60 67.50Q550.86 67.50 546.01 62.42Q541.16 57.34 541.16 48.83L541.16 48.83L541.16 47.64Q541.16 41.98 543.32 37.53Q545.48 33.08 549.37 30.57Q553.25 28.05 557.79 28.05L557.79 28.05Q565.21 28.05 569.32 32.94Q573.43 37.83 573.43 46.93L573.43 46.93L573.43 49.64L547.66 49.64Q547.80 55.27 550.95 58.73Q554.10 62.19 558.95 62.19L558.95 62.19Q562.39 62.19 564.79 60.79Q567.18 59.38 568.97 57.06L568.97 57.06L572.94 60.15Q568.16 67.50 558.60 67.50ZM557.79 33.40L557.79 33.40Q553.85 33.40 551.18 36.26Q548.51 39.13 547.88 44.30L547.88 44.30L566.93 44.30L566.93 43.80Q566.65 38.85 564.26 36.12Q561.87 33.40 557.79 33.40Z"/></svg>