<svg xmlns="http://www.w3.org/2000/svg" xmlns:xlink="http://www.w3.org/1999/xlink" width="1425.97265625" height="84.375"><path fill="white" stroke="none" class="path" d="M41.31 15.61L41.31 21.16L24.86 21.16L24.86 66.80L18.14 66.80L18.14 21.16L1.72 21.16L1.72 15.61L41.31 15.61ZM54.39 12.80L54.39 33.36Q58.71 28.05 65.64 28.05L65.64 28.05Q77.70 28.05 77.80 41.66L77.80 41.66L77.80 66.80L71.30 66.80L71.30 41.63Q71.26 37.51 69.42 35.54Q67.57 33.57 63.67 33.57L63.67 33.57Q60.50 33.57 58.11 35.26Q55.72 36.95 54.39 39.69L54.39 39.69L54.39 66.80L47.88 66.80L47.88 12.80L54.39 12.80ZM103.32 67.50L103.32 67.50Q95.59 67.50 90.74 62.42Q85.89 57.34 85.89 48.83L85.89 48.83L85.89 47.64Q85.89 41.98 88.05 37.53Q90.21 33.08 94.10 30.57Q97.98 28.05 102.52 28.05L102.52 28.05Q109.93 28.05 114.05 32.94Q118.16 37.83 118.16 46.93L118.16 46.93L118.16 49.64L92.39 49.64Q92.53 55.27 95.68 58.73Q98.82 62.19 103.68 62.19L103.68 62.19Q107.12 62.19 109.51 60.79Q111.90 59.38 113.70 57.06L113.70 57.06L117.67 60.15Q112.89 67.50 103.32 67.50ZM102.52 33.40L102.52 33.40Q98.58 33.40 95.91 36.26Q93.23 39.13 92.60 44.30L92.60 44.30L111.66 44.30L111.66 43.80Q111.38 38.85 108.98 36.12Q106.59 33.40 102.52 33.40ZM147.83 56.71L147.83 56.71Q147.83 54.07 145.85 52.61Q143.86 51.15 138.92 50.10Q133.98 49.04 131.08 47.57Q128.18 46.09 126.79 44.05Q125.40 42.01 125.40 39.20L125.40 39.20Q125.40 34.52 129.36 31.29Q133.31 28.05 139.46 28.05L139.46 28.05Q145.93 28.05 149.96 31.39Q153.98 34.73 153.98 39.94L153.98 39.94L147.45 39.94Q147.45 37.27 145.18 35.33Q142.91 33.40 139.46 33.40L139.46 33.40Q135.91 33.40 133.91 34.95Q131.91 36.49 131.91 38.99L131.91 38.99Q131.91 41.34 133.77 42.54Q135.63 43.73 140.50 44.82Q145.37 45.91 148.39 47.43Q151.42 48.94 152.88 51.06Q154.34 53.19 154.34 56.25L154.34 56.25Q154.34 61.35 150.26 64.42Q146.18 67.50 139.68 67.50L139.68 67.50Q135.11 67.50 131.59 65.88Q128.07 64.27 126.09 61.37Q124.10 58.46 124.10 55.09L124.10 55.09L130.61 55.09Q130.78 58.36 133.22 60.28Q135.67 62.19 139.68 62.19L139.68 62.19Q143.37 62.19 145.60 60.70Q147.83 59.20 147.83 56.71ZM178.59 67.50L178.59 67.50Q170.86 67.50 166.01 62.42Q161.16 57.34 161.16 48.83L161.16 48.83L161.16 47.64Q161.16 41.98 163.32 37.53Q165.48 33.08 169.37 30.57Q173.25 28.05 177.79 28.05L177.79 28.05Q185.20 28.05 189.32 32.94Q193.43 37.83 193.43 46.93L193.43 46.93L193.43 49.64L167.66 49.64Q167.80 55.27 170.95 58.73Q174.09 62.19 178.95 62.19L178.95 62.19Q182.39 62.19 184.78 60.79Q187.17 59.38 188.96 57.06L188.96 57.06L192.94 60.15Q188.16 67.50 178.59 67.50ZM177.79 33.40L177.79 33.40Q173.85 33.40 171.18 36.26Q168.50 39.13 167.87 44.30L167.87 44.30L186.93 44.30L186.93 43.80Q186.64 38.85 184.25 36.12Q181.86 33.40 177.79 33.40ZM249.08 66.80L242.26 66.80Q241.70 65.67 241.35 62.79L241.35 62.79Q236.81 67.50 230.52 67.50L230.52 67.50Q224.89 67.50 221.29 64.32Q217.69 61.14 217.69 56.25L217.69 56.25Q217.69 50.31 222.21 47.02Q226.72 43.73 234.91 43.73L234.91 43.73L241.24 43.73L241.24 40.75Q241.24 37.34 239.20 35.31Q237.16 33.29 233.19 33.29L233.19 33.29Q229.71 33.29 227.36 35.05Q225 36.81 225 39.30L225 39.30L218.46 39.30Q218.46 36.46 220.48 33.80Q222.50 31.15 225.97 29.60Q229.43 28.05 233.58 28.05L233.58 28.05Q240.15 28.05 243.88 31.34Q247.61 34.63 247.75 40.39L247.75 40.39L247.75 57.90Q247.75 63.14 249.08 66.23L249.08 66.23L249.08 66.80ZM231.47 61.84L231.47 61.84Q234.53 61.84 237.27 60.26Q240.01 58.68 241.24 56.14L241.24 56.14L241.24 48.34L236.14 48.34Q224.19 48.34 224.19 55.34L224.19 55.34Q224.19 58.39 226.23 60.12Q228.27 61.84 231.47 61.84ZM276.33 28.55L276.33 34.59Q274.85 34.35 273.13 34.35L273.13 34.35Q266.73 34.35 264.45 39.80L264.45 39.80L264.45 66.80L257.94 66.80L257.94 28.76L264.27 28.76L264.38 33.15Q267.57 28.05 273.45 28.05L273.45 28.05Q275.34 28.05 276.33 28.55L276.33 28.55ZM297.42 67.50L297.42 67.50Q289.69 67.50 284.84 62.42Q279.98 57.34 279.98 48.83L279.98 48.83L279.98 47.64Q279.98 41.98 282.15 37.53Q284.31 33.08 288.19 30.57Q292.08 28.05 296.61 28.05L296.61 28.05Q304.03 28.05 308.14 32.94Q312.26 37.83 312.26 46.93L312.26 46.93L312.26 49.64L286.49 49.64Q286.63 55.27 289.78 58.73Q292.92 62.19 297.77 62.19L297.77 62.19Q301.22 62.19 303.61 60.79Q306 59.38 307.79 57.06L307.79 57.06L311.77 60.15Q306.98 67.50 297.42 67.50ZM296.61 33.40L296.61 33.40Q292.68 33.40 290.00 36.26Q287.33 39.13 286.70 44.30L286.70 44.30L305.75 44.30L305.75 43.80Q305.47 38.85 303.08 36.12Q300.69 33.40 296.61 33.40ZM339.93 19.55L346.43 19.55L346.43 28.76L353.53 28.76L353.53 33.79L346.43 33.79L346.43 57.38Q346.43 59.66 347.38 60.80Q348.33 61.95 350.61 61.95L350.61 61.95Q351.74 61.95 353.71 61.52L353.71 61.52L353.71 66.80Q351.14 67.50 348.71 67.50L348.71 67.50Q344.36 67.50 342.14 64.86Q339.93 62.23 339.93 57.38L339.93 57.38L339.93 33.79L333 33.79L333 28.76L339.93 28.76L339.93 19.55ZM367.63 12.80L367.63 33.36Q371.95 28.05 378.88 28.05L378.88 28.05Q390.94 28.05 391.04 41.66L391.04 41.66L391.04 66.80L384.54 66.80L384.54 41.63Q384.50 37.51 382.66 35.54Q380.81 33.57 376.91 33.57L376.91 33.57Q373.75 33.57 371.36 35.26Q368.96 36.95 367.63 39.69L367.63 39.69L367.63 66.80L361.13 66.80L361.13 12.80L367.63 12.80ZM416.57 67.50L416.57 67.50Q408.83 67.50 403.98 62.42Q399.13 57.34 399.13 48.83L399.13 48.83L399.13 47.64Q399.13 41.98 401.29 37.53Q403.45 33.08 407.34 30.57Q411.22 28.05 415.76 28.05L415.76 28.05Q423.18 28.05 427.29 32.94Q431.40 37.83 431.40 46.93L431.40 46.93L431.40 49.64L405.63 49.64Q405.77 55.27 408.92 58.73Q412.07 62.19 416.92 62.19L416.92 62.19Q420.36 62.19 422.75 60.79Q425.14 59.38 426.94 57.06L426.94 57.06L430.91 60.15Q426.13 67.50 416.57 67.50ZM415.76 33.40L415.76 33.40Q411.82 33.40 409.15 36.26Q406.48 39.13 405.84 44.30L405.84 44.30L424.90 44.30L424.90 43.80Q424.62 38.85 422.23 36.12Q419.84 33.40 415.76 33.40ZM478.90 56.71L478.90 56.71Q478.90 54.07 476.91 52.61Q474.93 51.15 469.99 50.10Q465.05 49.04 462.15 47.57Q459.25 46.09 457.86 44.05Q456.47 42.01 456.47 39.20L456.47 39.20Q456.47 34.52 460.42 31.29Q464.38 28.05 470.53 28.05L470.53 28.05Q477 28.05 481.03 31.39Q485.05 34.73 485.05 39.94L485.05 39.94L478.51 39.94Q478.51 37.27 476.24 35.33Q473.98 33.40 470.53 33.40L470.53 33.40Q466.98 33.40 464.98 34.95Q462.97 36.49 462.97 38.99L462.97 38.99Q462.97 41.34 464.84 42.54Q466.70 43.73 471.57 44.82Q476.44 45.91 479.46 47.43Q482.48 48.94 483.94 51.06Q485.40 53.19 485.40 56.25L485.40 56.25Q485.40 61.35 481.32 64.42Q477.25 67.50 470.74 67.50L470.74 67.50Q466.17 67.50 462.66 65.88Q459.14 64.27 457.15 61.37Q455.17 58.46 455.17 55.09L455.17 55.09L461.67 55.09Q461.85 58.36 464.29 60.28Q466.73 62.19 470.74 62.19L470.74 62.19Q474.43 62.19 476.67 60.70Q478.90 59.20 478.90 56.71ZM500.38 12.80L500.38 33.36Q504.70 28.05 511.63 28.05L511.63 28.05Q523.69 28.05 523.79 41.66L523.79 41.66L523.79 66.80L517.29 66.80L517.29 41.63Q517.25 37.51 515.41 35.54Q513.56 33.57 509.66 33.57L509.66 33.57Q506.50 33.57 504.11 35.26Q501.71 36.95 500.38 39.69L500.38 39.69L500.38 66.80L493.88 66.80L493.88 12.80L500.38 12.80ZM563.84 66.80L557.02 66.80Q556.45 65.67 556.10 62.79L556.10 62.79Q551.57 67.50 545.27 67.50L545.27 67.50Q539.65 67.50 536.04 64.32Q532.44 61.14 532.44 56.25L532.44 56.25Q532.44 50.31 536.96 47.02Q541.48 43.73 549.67 43.73L549.67 43.73L556.00 43.73L556.00 40.75Q556.00 37.34 553.96 35.31Q551.92 33.29 547.95 33.29L547.95 33.29Q544.46 33.29 542.11 35.05Q539.75 36.81 539.75 39.30L539.75 39.30L533.21 39.30Q533.21 36.46 535.24 33.80Q537.26 31.15 540.72 29.60Q544.18 28.05 548.33 28.05L548.33 28.05Q554.91 28.05 558.63 31.34Q562.36 34.63 562.50 40.39L562.50 40.39L562.50 57.90Q562.50 63.14 563.84 66.23L563.84 66.23L563.84 66.80ZM546.22 61.84L546.22 61.84Q549.28 61.84 552.02 60.26Q554.77 58.68 556.00 56.14L556.00 56.14L556.00 48.34L550.90 48.34Q538.95 48.34 538.95 55.34L538.95 55.34Q538.95 58.39 540.98 60.12Q543.02 61.84 546.22 61.84ZM571.11 47.95L571.11 47.46Q571.11 38.71 575.26 33.38Q579.41 28.05 586.13 28.05L586.13 28.05Q592.80 28.05 596.71 32.63L596.71 32.63L596.71 12.80L603.21 12.80L603.21 66.80L597.23 66.80L596.92 62.72Q593.02 67.50 586.05 67.50L586.05 67.50Q579.45 67.50 575.28 62.09Q571.11 56.67 571.11 47.95L571.11 47.95ZM577.62 48.20L577.62 48.20Q577.62 54.67 580.29 58.32Q582.96 61.98 587.67 61.98L587.67 61.98Q593.86 61.98 596.71 56.43L596.71 56.43L596.71 38.95Q593.79 33.57 587.74 33.57L587.74 33.57Q582.96 33.57 580.29 37.27Q577.62 40.96 577.62 48.20ZM629.09 67.50L629.09 67.50Q621.35 67.50 616.50 62.42Q611.65 57.34 611.65 48.83L611.65 48.83L611.65 47.64Q611.65 41.98 613.81 37.53Q615.97 33.08 619.86 30.57Q623.74 28.05 628.28 28.05L628.28 28.05Q635.70 28.05 639.81 32.94Q643.92 37.83 643.92 46.93L643.92 46.93L643.92 49.64L618.15 49.64Q618.29 55.27 621.44 58.73Q624.59 62.19 629.44 62.19L629.44 62.19Q632.88 62.19 635.27 60.79Q637.66 59.38 639.46 57.06L639.46 57.06L643.43 60.15Q638.65 67.50 629.09 67.50ZM628.28 33.40L628.28 33.40Q624.34 33.40 621.67 36.26Q619.00 39.13 618.36 44.30L618.36 44.30L637.42 44.30L637.42 43.80Q637.14 38.85 634.75 36.12Q632.36 33.40 628.28 33.40ZM673.59 56.71L673.59 56.71Q673.59 54.07 671.61 52.61Q669.62 51.15 664.68 50.10Q659.74 49.04 656.84 47.57Q653.94 46.09 652.55 44.05Q651.16 42.01 651.16 39.20L651.16 39.20Q651.16 34.52 655.12 31.29Q659.07 28.05 665.23 28.05L665.23 28.05Q671.70 28.05 675.72 31.39Q679.75 34.73 679.75 39.94L679.75 39.94L673.21 39.94Q673.21 37.27 670.94 35.33Q668.67 33.40 665.23 33.40L665.23 33.40Q661.68 33.40 659.67 34.95Q657.67 36.49 657.67 38.99L657.67 38.99Q657.67 41.34 659.53 42.54Q661.39 43.73 666.26 44.82Q671.13 45.91 674.16 47.43Q677.18 48.94 678.64 51.06Q680.10 53.19 680.10 56.25L680.10 56.25Q680.10 61.35 676.02 64.42Q671.94 67.50 665.44 67.50L665.44 67.50Q660.87 67.50 657.35 65.88Q653.84 64.27 651.85 61.37Q649.86 58.46 649.86 55.09L649.86 55.09L656.37 55.09Q656.54 58.36 658.99 60.28Q661.43 62.19 665.44 62.19L665.44 62.19Q669.13 62.19 671.36 60.70Q673.59 59.20 673.59 56.71ZM704.67 47.88L704.67 47.43Q704.67 41.84 706.87 37.37Q709.07 32.91 712.99 30.48Q716.91 28.05 721.93 28.05L721.93 28.05Q729.70 28.05 734.50 33.43Q739.30 38.81 739.30 47.74L739.30 47.74L739.30 48.20Q739.30 53.75 737.17 58.17Q735.05 62.58 731.09 65.04Q727.14 67.50 722.00 67.50L722.00 67.50Q714.27 67.50 709.47 62.12Q704.67 56.74 704.67 47.88L704.67 47.88ZM711.21 48.20L711.21 48.20Q711.21 54.53 714.15 58.36Q717.08 62.19 722.00 62.19L722.00 62.19Q726.96 62.19 729.88 58.31Q732.80 54.42 732.80 47.43L732.80 47.43Q732.80 41.17 729.83 37.28Q726.86 33.40 721.93 33.40L721.93 33.40Q717.12 33.40 714.16 37.23Q711.21 41.06 711.21 48.20ZM757.16 66.80L750.66 66.80L750.66 33.79L744.64 33.79L744.64 28.76L750.66 28.76L750.66 24.86Q750.66 18.74 753.93 15.40Q757.20 12.06 763.17 12.06L763.17 12.06Q765.42 12.06 767.64 12.66L767.64 12.66L767.29 17.93Q765.63 17.61 763.77 17.61L763.77 17.61Q760.61 17.61 758.88 19.46Q757.16 21.30 757.16 24.75L757.16 24.75L757.16 28.76L765.28 28.76L765.28 33.79L757.16 33.79L757.16 66.80ZM793.23 28.76L802.72 57.27L811.58 28.76L818.54 28.76L803.25 72.67Q799.70 82.16 791.96 82.16L791.96 82.16L790.73 82.05L788.31 81.60L788.31 76.32L790.07 76.46Q793.37 76.46 795.22 75.13Q797.06 73.79 798.26 70.24L798.26 70.24L799.70 66.38L786.13 28.76L793.23 28.76ZM822.09 47.88L822.09 47.43Q822.09 41.84 824.29 37.37Q826.49 32.91 830.41 30.48Q834.33 28.05 839.36 28.05L839.36 28.05Q847.13 28.05 851.92 33.43Q856.72 38.81 856.72 47.74L856.72 47.74L856.72 48.20Q856.72 53.75 854.60 58.17Q852.47 62.58 848.51 65.04Q844.56 67.50 839.43 67.50L839.43 67.50Q831.69 67.50 826.89 62.12Q822.09 56.74 822.09 47.88L822.09 47.88ZM828.63 48.20L828.63 48.20Q828.63 54.53 831.57 58.36Q834.50 62.19 839.43 62.19L839.43 62.19Q844.38 62.19 847.30 58.31Q850.22 54.42 850.22 47.43L850.22 47.43Q850.22 41.17 847.25 37.28Q844.28 33.40 839.36 33.40L839.36 33.40Q834.54 33.40 831.59 37.23Q828.63 41.06 828.63 48.20ZM888.50 66.80L888.36 63.04Q884.57 67.50 877.22 67.50L877.22 67.50Q871.14 67.50 867.96 63.97Q864.77 60.43 864.74 53.51L864.74 53.51L864.74 28.76L871.24 28.76L871.24 53.33Q871.24 61.98 878.27 61.98L878.27 61.98Q885.73 61.98 888.19 56.43L888.19 56.43L888.19 28.76L894.69 28.76L894.69 66.80L888.50 66.80ZM922.96 28.55L922.96 34.59Q921.48 34.35 919.76 34.35L919.76 34.35Q913.36 34.35 911.07 39.80L911.07 39.80L911.07 66.80L904.57 66.80L904.57 28.76L910.90 28.76L911.00 33.15Q914.20 28.05 920.07 28.05L920.07 28.05Q921.97 28.05 922.96 28.55L922.96 28.55ZM978.96 47.64L978.96 48.20Q978.96 56.92 974.95 62.21Q970.95 67.50 964.20 67.50L964.20 67.50Q956.99 67.50 953.05 62.40L953.05 62.40L952.73 66.80L946.76 66.80L946.76 12.80L953.26 12.80L953.26 32.94Q957.20 28.05 964.13 28.05Q971.05 28.05 975.01 33.29Q978.96 38.53 978.96 47.64L978.96 47.64ZM972.46 47.46L972.46 47.46Q972.46 40.82 969.89 37.20Q967.32 33.57 962.51 33.57L962.51 33.57Q956.07 33.57 953.26 39.55L953.26 39.55L953.26 56.00Q956.25 61.98 962.58 61.98L962.58 61.98Q967.25 61.98 969.86 58.36Q972.46 54.74 972.46 47.46ZM985.43 47.88L985.43 47.43Q985.43 41.84 987.63 37.37Q989.82 32.91 993.74 30.48Q997.66 28.05 1002.69 28.05L1002.69 28.05Q1010.46 28.05 1015.26 33.43Q1020.06 38.81 1020.06 47.74L1020.06 47.74L1020.06 48.20Q1020.06 53.75 1017.93 58.17Q1015.80 62.58 1011.85 65.04Q1007.89 67.50 1002.76 67.50L1002.76 67.50Q995.03 67.50 990.23 62.12Q985.43 56.74 985.43 47.88L985.43 47.88ZM991.97 48.20L991.97 48.20Q991.97 54.53 994.90 58.36Q997.84 62.19 1002.76 62.19L1002.76 62.19Q1007.72 62.19 1010.64 58.31Q1013.55 54.42 1013.55 47.43L1013.55 47.43Q1013.55 41.17 1010.58 37.28Q1007.61 33.40 1002.69 33.40L1002.69 33.40Q997.88 33.40 994.92 37.23Q991.97 41.06 991.97 48.20ZM1026.63 47.95L1026.63 47.46Q1026.63 38.71 1030.78 33.38Q1034.93 28.05 1041.64 28.05L1041.64 28.05Q1048.32 28.05 1052.23 32.63L1052.23 32.63L1052.23 12.80L1058.73 12.80L1058.73 66.80L1052.75 66.80L1052.44 62.72Q1048.54 67.50 1041.57 67.50L1041.57 67.50Q1034.96 67.50 1030.80 62.09Q1026.63 56.67 1026.63 47.95L1026.63 47.95ZM1033.14 48.20L1033.14 48.20Q1033.14 54.67 1035.81 58.32Q1038.48 61.98 1043.19 61.98L1043.19 61.98Q1049.38 61.98 1052.23 56.43L1052.23 56.43L1052.23 38.95Q1049.31 33.57 1043.26 33.57L1043.26 33.57Q1038.48 33.57 1035.81 37.27Q1033.14 40.96 1033.14 48.20ZM1071.77 28.76L1081.27 57.27L1090.13 28.76L1097.09 28.76L1081.79 72.67Q1078.24 82.16 1070.51 82.16L1070.51 82.16L1069.28 82.05L1066.85 81.60L1066.85 76.32L1068.61 76.46Q1071.91 76.46 1073.76 75.13Q1075.61 73.79 1076.80 70.24L1076.80 70.24L1078.24 66.38L1064.67 28.76L1071.77 28.76ZM1151.02 66.80L1144.20 66.80Q1143.63 65.67 1143.28 62.79L1143.28 62.79Q1138.75 67.50 1132.45 67.50L1132.45 67.50Q1126.83 67.50 1123.22 64.32Q1119.62 61.14 1119.62 56.25L1119.62 56.25Q1119.62 50.31 1124.14 47.02Q1128.66 43.73 1136.85 43.73L1136.85 43.73L1143.18 43.73L1143.18 40.75Q1143.18 37.34 1141.14 35.31Q1139.10 33.29 1135.13 33.29L1135.13 33.29Q1131.64 33.29 1129.29 35.05Q1126.93 36.81 1126.93 39.30L1126.93 39.30L1120.39 39.30Q1120.39 36.46 1122.42 33.80Q1124.44 31.15 1127.90 29.60Q1131.36 28.05 1135.51 28.05L1135.51 28.05Q1142.09 28.05 1145.81 31.34Q1149.54 34.63 1149.68 40.39L1149.68 40.39L1149.68 57.90Q1149.68 63.14 1151.02 66.23L1151.02 66.23L1151.02 66.80ZM1133.40 61.84L1133.40 61.84Q1136.46 61.84 1139.20 60.26Q1141.95 58.68 1143.18 56.14L1143.18 56.14L1143.18 48.34L1138.08 48.34Q1126.13 48.34 1126.13 55.34L1126.13 55.34Q1126.13 58.39 1128.16 60.12Q1130.20 61.84 1133.40 61.84ZM1159.88 28.76L1166.03 28.76L1166.24 33.54Q1170.60 28.05 1177.63 28.05L1177.63 28.05Q1189.69 28.05 1189.79 41.66L1189.79 41.66L1189.79 66.80L1183.29 66.80L1183.29 41.63Q1183.25 37.51 1181.41 35.54Q1179.56 33.57 1175.66 33.57L1175.66 33.57Q1172.50 33.57 1170.11 35.26Q1167.71 36.95 1166.38 39.69L1166.38 39.69L1166.38 66.80L1159.88 66.80L1159.88 28.76ZM1198.02 47.95L1198.02 47.46Q1198.02 38.71 1202.17 33.38Q1206.32 28.05 1213.03 28.05L1213.03 28.05Q1219.71 28.05 1223.61 32.63L1223.61 32.63L1223.61 12.80L1230.12 12.80L1230.12 66.80L1224.14 66.80L1223.82 62.72Q1219.92 67.50 1212.96 67.50L1212.96 67.50Q1206.35 67.50 1202.19 62.09Q1198.02 56.67 1198.02 47.95L1198.02 47.95ZM1204.52 48.20L1204.52 48.20Q1204.52 54.67 1207.20 58.32Q1209.87 61.98 1214.58 61.98L1214.58 61.98Q1220.77 61.98 1223.61 56.43L1223.61 56.43L1223.61 38.95Q1220.70 33.57 1214.65 33.57L1214.65 33.57Q1209.87 33.57 1207.20 37.27Q1204.52 40.96 1204.52 48.20ZM1280.18 56.71L1280.18 56.71Q1280.18 54.07 1278.19 52.61Q1276.21 51.15 1271.27 50.10Q1266.33 49.04 1263.43 47.57Q1260.53 46.09 1259.14 44.05Q1257.75 42.01 1257.75 39.20L1257.75 39.20Q1257.75 34.52 1261.71 31.29Q1265.66 28.05 1271.81 28.05L1271.81 28.05Q1278.28 28.05 1282.31 31.39Q1286.33 34.73 1286.33 39.94L1286.33 39.94L1279.79 39.94Q1279.79 37.27 1277.53 35.33Q1275.26 33.40 1271.81 33.40L1271.81 33.40Q1268.26 33.40 1266.26 34.95Q1264.25 36.49 1264.25 38.99L1264.25 38.99Q1264.25 41.34 1266.12 42.54Q1267.98 43.73 1272.85 44.82Q1277.72 45.91 1280.74 47.43Q1283.77 48.94 1285.22 51.06Q1286.68 53.19 1286.68 56.25L1286.68 56.25Q1286.68 61.35 1282.61 64.42Q1278.53 67.50 1272.02 67.50L1272.02 67.50Q1267.45 67.50 1263.94 65.88Q1260.42 64.27 1258.44 61.37Q1256.45 58.46 1256.45 55.09L1256.45 55.09L1262.95 55.09Q1263.13 58.36 1265.57 60.28Q1268.02 62.19 1272.02 62.19L1272.02 62.19Q1275.71 62.19 1277.95 60.70Q1280.18 59.20 1280.18 56.71ZM1327.29 47.60L1327.29 48.20Q1327.29 56.88 1323.32 62.19Q1319.34 67.50 1312.56 67.50L1312.56 67.50Q1305.63 67.50 1301.66 63.11L1301.66 63.11L1301.66 81.42L1295.16 81.42L1295.16 28.76L1301.10 28.76L1301.41 32.98Q1305.39 28.05 1312.45 28.05L1312.45 28.05Q1319.31 28.05 1323.30 33.22Q1327.29 38.39 1327.29 47.60L1327.29 47.60ZM1320.79 47.46L1320.79 47.46Q1320.79 41.03 1318.04 37.30Q1315.30 33.57 1310.52 33.57L1310.52 33.57Q1304.61 33.57 1301.66 38.81L1301.66 38.81L1301.66 56.99Q1304.58 62.19 1310.59 62.19L1310.59 62.19Q1315.27 62.19 1318.03 58.48Q1320.79 54.77 1320.79 47.46ZM1342.62 28.76L1342.62 66.80L1336.11 66.80L1336.11 28.76L1342.62 28.76ZM1335.59 18.67L1335.59 18.67Q1335.59 17.09 1336.55 16.00Q1337.52 14.91 1339.42 14.91Q1341.32 14.91 1342.30 16.00Q1343.29 17.09 1343.29 18.67Q1343.29 20.25 1342.30 21.30Q1341.32 22.36 1339.42 22.36Q1337.52 22.36 1336.55 21.30Q1335.59 20.25 1335.59 18.67ZM1353.02 28.76L1359.18 28.76L1359.39 33.54Q1363.75 28.05 1370.78 28.05L1370.78 28.05Q1382.84 28.05 1382.94 41.66L1382.94 41.66L1382.94 66.80L1376.44 66.80L1376.44 41.63Q1376.40 37.51 1374.56 35.54Q1372.71 33.57 1368.81 33.57L1368.81 33.57Q1365.64 33.57 1363.25 35.26Q1360.86 36.95 1359.53 39.69L1359.53 39.69L1359.53 66.80L1353.02 66.80L1353.02 28.76ZM1408.54 67.50L1408.54 67.50Q1400.80 67.50 1395.95 62.42Q1391.10 57.34 1391.10 48.83L1391.10 48.83L1391.10 47.64Q1391.10 41.98 1393.26 37.53Q1395.42 33.08 1399.31 30.57Q1403.19 28.05 1407.73 28.05L1407.73 28.05Q1415.14 28.05 1419.26 32.94Q1423.37 37.83 1423.37 46.93L1423.37 46.93L1423.37 49.64L1397.60 49.64Q1397.74 55.27 1400.89 58.73Q1404.04 62.19 1408.89 62.19L1408.89 62.19Q1412.33 62.19 1414.72 60.79Q1417.11 59.38 1418.91 57.06L1418.91 57.06L1422.88 60.15Q1418.10 67.50 1408.54 67.50ZM1407.73 33.40L1407.73 33.40Q1403.79 33.40 1401.12 36.26Q1398.45 39.13 1397.81 44.30L1397.81 44.30L1416.87 44.30L1416.87 43.80Q1416.59 38.85 1414.20 36.12Q1411.80 33.40 1407.73 33.40Z"/></svg>