<svg xmlns="http://www.w3.org/2000/svg" xmlns:xlink="http://www.w3.org/1999/xlink" width="998.19140625" height="84.375"><path fill="white" stroke="none" class="path" d="M20.11 66.80L5.94 66.80L5.94 15.61L20.39 15.61Q27.07 15.61 32.20 18.56Q37.34 21.52 40.13 26.96Q42.93 32.41 42.96 39.48L42.96 39.48L42.96 42.75Q42.96 49.99 40.17 55.44Q37.37 60.89 32.19 63.81Q27 66.73 20.11 66.80L20.11 66.80ZM20.57 21.16L12.69 21.16L12.69 61.28L19.79 61.28Q27.60 61.28 31.94 56.43Q36.28 51.57 36.28 42.61L36.28 42.61L36.28 39.62Q36.28 30.90 32.19 26.07Q28.09 21.23 20.57 21.16L20.57 21.16ZM82.44 66.80L75.62 66.80Q75.06 65.67 74.71 62.79L74.71 62.79Q70.17 67.50 63.88 67.50L63.88 67.50Q58.25 67.50 54.65 64.32Q51.05 61.14 51.05 56.25L51.05 56.25Q51.05 50.31 55.56 47.02Q60.08 43.73 68.27 43.73L68.27 43.73L74.60 43.73L74.60 40.75Q74.60 37.34 72.56 35.31Q70.52 33.29 66.55 33.29L66.55 33.29Q63.07 33.29 60.71 35.05Q58.36 36.81 58.36 39.30L58.36 39.30L51.82 39.30Q51.82 36.46 53.84 33.80Q55.86 31.15 59.33 29.60Q62.79 28.05 66.94 28.05L66.94 28.05Q73.51 28.05 77.24 31.34Q80.96 34.63 81.11 40.39L81.11 40.39L81.11 57.90Q81.11 63.14 82.44 66.23L82.44 66.23L82.44 66.80ZM64.83 61.84L64.83 61.84Q67.89 61.84 70.63 60.26Q73.37 58.68 74.60 56.14L74.60 56.14L74.60 48.34L69.50 48.34Q57.55 48.34 57.55 55.34L57.55 55.34Q57.55 58.39 59.59 60.12Q61.63 61.84 64.83 61.84ZM109.69 28.55L109.69 34.59Q108.21 34.35 106.49 34.35L106.49 34.35Q100.09 34.35 97.80 39.80L97.80 39.80L97.80 66.80L91.30 66.80L91.30 28.76L97.63 28.76L97.73 33.15Q100.93 28.05 106.80 28.05L106.80 28.05Q108.70 28.05 109.69 28.55L109.69 28.55ZM139.54 66.80L126.28 49.18L122.20 53.44L122.20 66.80L115.70 66.80L115.70 12.80L122.20 12.80L122.20 45.46L125.68 41.27L137.53 28.76L145.44 28.76L130.64 44.65L147.16 66.80L139.54 66.80ZM152.16 28.76L158.31 28.76L158.52 33.54Q162.88 28.05 169.91 28.05L169.91 28.05Q181.97 28.05 182.07 41.66L182.07 41.66L182.07 66.80L175.57 66.80L175.57 41.63Q175.54 37.51 173.69 35.54Q171.84 33.57 167.94 33.57L167.94 33.57Q164.78 33.57 162.39 35.26Q160.00 36.95 158.66 39.69L158.66 39.69L158.66 66.80L152.16 66.80L152.16 28.76ZM207.67 67.50L207.67 67.50Q199.93 67.50 195.08 62.42Q190.23 57.34 190.23 48.83L190.23 48.83L190.23 47.64Q190.23 41.98 192.39 37.53Q194.55 33.08 198.44 30.57Q202.32 28.05 206.86 28.05L206.86 28.05Q214.28 28.05 218.39 32.94Q222.50 37.83 222.50 46.93L222.50 46.93L222.50 49.64L196.73 49.64Q196.88 55.27 200.02 58.73Q203.17 62.19 208.02 62.19L208.02 62.19Q211.46 62.19 213.86 60.79Q216.25 59.38 218.04 57.06L218.04 57.06L222.01 60.15Q217.23 67.50 207.67 67.50ZM206.86 33.40L206.86 33.40Q202.92 33.40 200.25 36.26Q197.58 39.13 196.95 44.30L196.95 44.30L216 44.30L216 43.80Q215.72 38.85 213.33 36.12Q210.94 33.40 206.86 33.40ZM252.18 56.71L252.18 56.71Q252.18 54.07 250.19 52.61Q248.20 51.15 243.26 50.10Q238.32 49.04 235.42 47.57Q232.52 46.09 231.13 44.05Q229.75 42.01 229.75 39.20L229.75 39.20Q229.75 34.52 233.70 31.29Q237.66 28.05 243.81 28.05L243.81 28.05Q250.28 28.05 254.30 31.39Q258.33 34.73 258.33 39.94L258.33 39.94L251.79 39.94Q251.79 37.27 249.52 35.33Q247.25 33.40 243.81 33.40L243.81 33.40Q240.26 33.40 238.25 34.95Q236.25 36.49 236.25 38.99L236.25 38.99Q236.25 41.34 238.11 42.54Q239.98 43.73 244.85 44.82Q249.71 45.91 252.74 47.43Q255.76 48.94 257.22 51.06Q258.68 53.19 258.68 56.25L258.68 56.25Q258.68 61.35 254.60 64.42Q250.52 67.50 244.02 67.50L244.02 67.50Q239.45 67.50 235.93 65.88Q232.42 64.27 230.43 61.37Q228.45 58.46 228.45 55.09L228.45 55.09L234.95 55.09Q235.13 58.36 237.57 60.28Q240.01 62.19 244.02 62.19L244.02 62.19Q247.71 62.19 249.94 60.70Q252.18 59.20 252.18 56.71ZM289.30 56.71L289.30 56.71Q289.30 54.07 287.31 52.61Q285.33 51.15 280.39 50.10Q275.45 49.04 272.55 47.57Q269.65 46.09 268.26 44.05Q266.87 42.01 266.87 39.20L266.87 39.20Q266.87 34.52 270.83 31.29Q274.78 28.05 280.93 28.05L280.93 28.05Q287.40 28.05 291.43 31.39Q295.45 34.73 295.45 39.94L295.45 39.94L288.91 39.94Q288.91 37.27 286.65 35.33Q284.38 33.40 280.93 33.40L280.93 33.40Q277.38 33.40 275.38 34.95Q273.38 36.49 273.38 38.99L273.38 38.99Q273.38 41.34 275.24 42.54Q277.10 43.73 281.97 44.82Q286.84 45.91 289.86 47.43Q292.89 48.94 294.35 51.06Q295.80 53.19 295.80 56.25L295.80 56.25Q295.80 61.35 291.73 64.42Q287.65 67.50 281.14 67.50L281.14 67.50Q276.57 67.50 273.06 65.88Q269.54 64.27 267.56 61.37Q265.57 58.46 265.57 55.09L265.57 55.09L272.07 55.09Q272.25 58.36 274.69 60.28Q277.14 62.19 281.14 62.19L281.14 62.19Q284.84 62.19 287.07 60.70Q289.30 59.20 289.30 56.71ZM329.17 28.76L329.17 66.80L322.66 66.80L322.66 28.76L329.17 28.76ZM322.14 18.67L322.14 18.67Q322.14 17.09 323.10 16.00Q324.07 14.91 325.97 14.91Q327.87 14.91 328.85 16.00Q329.84 17.09 329.84 18.67Q329.84 20.25 328.85 21.30Q327.87 22.36 325.97 22.36Q324.07 22.36 323.10 21.30Q322.14 20.25 322.14 18.67ZM361.72 56.71L361.72 56.71Q361.72 54.07 359.74 52.61Q357.75 51.15 352.81 50.10Q347.87 49.04 344.97 47.57Q342.07 46.09 340.68 44.05Q339.29 42.01 339.29 39.20L339.29 39.20Q339.29 34.52 343.25 31.29Q347.20 28.05 353.36 28.05L353.36 28.05Q359.82 28.05 363.85 31.39Q367.88 34.73 367.88 39.94L367.88 39.94L361.34 39.94Q361.34 37.27 359.07 35.33Q356.80 33.40 353.36 33.40L353.36 33.40Q349.80 33.40 347.80 34.95Q345.80 36.49 345.80 38.99L345.80 38.99Q345.80 41.34 347.66 42.54Q349.52 43.73 354.39 44.82Q359.26 45.91 362.29 47.43Q365.31 48.94 366.77 51.06Q368.23 53.19 368.23 56.25L368.23 56.25Q368.23 61.35 364.15 64.42Q360.07 67.50 353.57 67.50L353.57 67.50Q349.00 67.50 345.48 65.88Q341.96 64.27 339.98 61.37Q337.99 58.46 337.99 55.09L337.99 55.09L344.50 55.09Q344.67 58.36 347.12 60.28Q349.56 62.19 353.57 62.19L353.57 62.19Q357.26 62.19 359.49 60.70Q361.72 59.20 361.72 56.71ZM409.78 62.19L409.78 62.19Q413.26 62.19 415.86 60.08Q418.46 57.97 418.75 54.81L418.75 54.81L424.90 54.81Q424.72 58.08 422.65 61.03Q420.57 63.98 417.11 65.74Q413.65 67.50 409.78 67.50L409.78 67.50Q402.01 67.50 397.42 62.31Q392.84 57.13 392.84 48.13L392.84 48.13L392.84 47.04Q392.84 41.48 394.88 37.16Q396.91 32.84 400.73 30.45Q404.54 28.05 409.75 28.05L409.75 28.05Q416.14 28.05 420.38 31.89Q424.62 35.72 424.90 41.84L424.90 41.84L418.75 41.84Q418.46 38.14 415.95 35.77Q413.44 33.40 409.75 33.40L409.75 33.40Q404.79 33.40 402.06 36.97Q399.34 40.54 399.34 47.29L399.34 47.29L399.34 48.52Q399.34 55.09 402.05 58.64Q404.75 62.19 409.78 62.19ZM430.49 47.88L430.49 47.43Q430.49 41.84 432.69 37.37Q434.88 32.91 438.80 30.48Q442.72 28.05 447.75 28.05L447.75 28.05Q455.52 28.05 460.32 33.43Q465.12 38.81 465.12 47.74L465.12 47.74L465.12 48.20Q465.12 53.75 462.99 58.17Q460.86 62.58 456.91 65.04Q452.95 67.50 447.82 67.50L447.82 67.50Q440.09 67.50 435.29 62.12Q430.49 56.74 430.49 47.88L430.49 47.88ZM437.03 48.20L437.03 48.20Q437.03 54.53 439.96 58.36Q442.90 62.19 447.82 62.19L447.82 62.19Q452.78 62.19 455.70 58.31Q458.61 54.42 458.61 47.43L458.61 47.43Q458.61 41.17 455.64 37.28Q452.67 33.40 447.75 33.40L447.75 33.40Q442.93 33.40 439.98 37.23Q437.03 41.06 437.03 48.20ZM473.24 28.76L479.39 28.76L479.57 32.98Q483.75 28.05 490.85 28.05L490.85 28.05Q498.83 28.05 501.71 34.17L501.71 34.17Q503.61 31.43 506.65 29.74Q509.70 28.05 513.84 28.05L513.84 28.05Q526.36 28.05 526.57 41.31L526.57 41.31L526.57 66.80L520.07 66.80L520.07 41.70Q520.07 37.62 518.20 35.60Q516.34 33.57 511.95 33.57L511.95 33.57Q508.32 33.57 505.93 35.74Q503.54 37.90 503.16 41.55L503.16 41.55L503.16 66.80L496.62 66.80L496.62 41.87Q496.62 33.57 488.50 33.57L488.50 33.57Q482.10 33.57 479.74 39.02L479.74 39.02L479.74 66.80L473.24 66.80L473.24 28.76ZM568.51 47.60L568.51 48.20Q568.51 56.88 564.54 62.19Q560.57 67.50 553.78 67.50L553.78 67.50Q546.86 67.50 542.88 63.11L542.88 63.11L542.88 81.42L536.38 81.42L536.38 28.76L542.32 28.76L542.64 32.98Q546.61 28.05 553.68 28.05L553.68 28.05Q560.53 28.05 564.52 33.22Q568.51 38.39 568.51 47.60L568.51 47.60ZM562.01 47.46L562.01 47.46Q562.01 41.03 559.27 37.30Q556.52 33.57 551.74 33.57L551.74 33.57Q545.84 33.57 542.88 38.81L542.88 38.81L542.88 56.99Q545.80 62.19 551.81 62.19L551.81 62.19Q556.49 62.19 559.25 58.48Q562.01 54.77 562.01 47.46ZM583.84 12.80L583.84 66.80L577.34 66.80L577.34 12.80L583.84 12.80ZM610.03 67.50L610.03 67.50Q602.30 67.50 597.45 62.42Q592.59 57.34 592.59 48.83L592.59 48.83L592.59 47.64Q592.59 41.98 594.76 37.53Q596.92 33.08 600.80 30.57Q604.69 28.05 609.22 28.05L609.22 28.05Q616.64 28.05 620.75 32.94Q624.87 37.83 624.87 46.93L624.87 46.93L624.87 49.64L599.10 49.64Q599.24 55.27 602.38 58.73Q605.53 62.19 610.38 62.19L610.38 62.19Q613.83 62.19 616.22 60.79Q618.61 59.38 620.40 57.06L620.40 57.06L624.38 60.15Q619.59 67.50 610.03 67.50ZM609.22 33.40L609.22 33.40Q605.29 33.40 602.61 36.26Q599.94 39.13 599.31 44.30L599.31 44.30L618.36 44.30L618.36 43.80Q618.08 38.85 615.69 36.12Q613.30 33.40 609.22 33.40ZM634.71 19.55L641.21 19.55L641.21 28.76L648.32 28.76L648.32 33.79L641.21 33.79L641.21 57.38Q641.21 59.66 642.16 60.80Q643.11 61.95 645.40 61.95L645.40 61.95Q646.52 61.95 648.49 61.52L648.49 61.52L648.49 66.80Q645.93 67.50 643.50 67.50L643.50 67.50Q639.14 67.50 636.93 64.86Q634.71 62.23 634.71 57.38L634.71 57.38L634.71 33.79L627.79 33.79L627.79 28.76L634.71 28.76L634.71 19.55ZM671.70 67.50L671.70 67.50Q663.96 67.50 659.11 62.42Q654.26 57.34 654.26 48.83L654.26 48.83L654.26 47.64Q654.26 41.98 656.42 37.53Q658.58 33.08 662.47 30.57Q666.35 28.05 670.89 28.05L670.89 28.05Q678.30 28.05 682.42 32.94Q686.53 37.83 686.53 46.93L686.53 46.93L686.53 49.64L660.76 49.64Q660.90 55.27 664.05 58.73Q667.20 62.19 672.05 62.19L672.05 62.19Q675.49 62.19 677.88 60.79Q680.27 59.38 682.07 57.06L682.07 57.06L686.04 60.15Q681.26 67.50 671.70 67.50ZM670.89 33.40L670.89 33.40Q666.95 33.40 664.28 36.26Q661.61 39.13 660.97 44.30L660.97 44.30L680.03 44.30L680.03 43.80Q679.75 38.85 677.36 36.12Q674.96 33.40 670.89 33.40ZM701.12 12.80L701.12 66.80L694.62 66.80L694.62 12.80L701.12 12.80ZM714.48 28.76L723.97 57.27L732.83 28.76L739.79 28.76L724.50 72.67Q720.95 82.16 713.21 82.16L713.21 82.16L711.98 82.05L709.56 81.60L709.56 76.32L711.32 76.46Q714.62 76.46 716.47 75.13Q718.31 73.79 719.51 70.24L719.51 70.24L720.95 66.38L707.38 28.76L714.48 28.76ZM761.84 47.95L761.84 47.46Q761.84 38.71 765.98 33.38Q770.13 28.05 776.85 28.05L776.85 28.05Q783.53 28.05 787.43 32.63L787.43 32.63L787.43 12.80L793.93 12.80L793.93 66.80L787.96 66.80L787.64 62.72Q783.74 67.50 776.78 67.50L776.78 67.50Q770.17 67.50 766.00 62.09Q761.84 56.67 761.84 47.95L761.84 47.95ZM768.34 48.20L768.34 48.20Q768.34 54.67 771.01 58.32Q773.68 61.98 778.39 61.98L778.39 61.98Q784.58 61.98 787.43 56.43L787.43 56.43L787.43 38.95Q784.51 33.57 778.46 33.57L778.46 33.57Q773.68 33.57 771.01 37.27Q768.34 40.96 768.34 48.20ZM819.81 67.50L819.81 67.50Q812.07 67.50 807.22 62.42Q802.37 57.34 802.37 48.83L802.37 48.83L802.37 47.64Q802.37 41.98 804.53 37.53Q806.70 33.08 810.58 30.57Q814.46 28.05 819 28.05L819 28.05Q826.42 28.05 830.53 32.94Q834.64 37.83 834.64 46.93L834.64 46.93L834.64 49.64L808.88 49.64Q809.02 55.27 812.16 58.73Q815.31 62.19 820.16 62.19L820.16 62.19Q823.61 62.19 826.00 60.79Q828.39 59.38 830.18 57.06L830.18 57.06L834.15 60.15Q829.37 67.50 819.81 67.50ZM819 33.40L819 33.40Q815.06 33.40 812.39 36.26Q809.72 39.13 809.09 44.30L809.09 44.30L828.14 44.30L828.14 43.80Q827.86 38.85 825.47 36.12Q823.08 33.40 819 33.40ZM851.87 66.80L845.37 66.80L845.37 33.79L839.36 33.79L839.36 28.76L845.37 28.76L845.37 24.86Q845.37 18.74 848.64 15.40Q851.91 12.06 857.88 12.06L857.88 12.06Q860.13 12.06 862.35 12.66L862.35 12.66L862.00 17.93Q860.34 17.61 858.48 17.61L858.48 17.61Q855.32 17.61 853.59 19.46Q851.87 21.30 851.87 24.75L851.87 24.75L851.87 28.76L859.99 28.76L859.99 33.79L851.87 33.79L851.87 66.80ZM874.23 28.76L874.23 66.80L867.73 66.80L867.73 28.76L874.23 28.76ZM867.20 18.67L867.20 18.67Q867.20 17.09 868.17 16.00Q869.13 14.91 871.03 14.91Q872.93 14.91 873.91 16.00Q874.90 17.09 874.90 18.67Q874.90 20.25 873.91 21.30Q872.93 22.36 871.03 22.36Q869.13 22.36 868.17 21.30Q867.20 20.25 867.20 18.67ZM884.64 28.76L890.79 28.76L891 33.54Q895.36 28.05 902.39 28.05L902.39 28.05Q914.45 28.05 914.55 41.66L914.55 41.66L914.55 66.80L908.05 66.80L908.05 41.63Q908.02 37.51 906.17 35.54Q904.32 33.57 900.42 33.57L900.42 33.57Q897.26 33.57 894.87 35.26Q892.48 36.95 891.14 39.69L891.14 39.69L891.14 66.80L884.64 66.80L884.64 28.76ZM940.15 67.50L940.15 67.50Q932.41 67.50 927.56 62.42Q922.71 57.34 922.71 48.83L922.71 48.83L922.71 47.64Q922.71 41.98 924.87 37.53Q927.04 33.08 930.92 30.57Q934.80 28.05 939.34 28.05L939.34 28.05Q946.76 28.05 950.87 32.94Q954.98 37.83 954.98 46.93L954.98 46.93L954.98 49.64L929.21 49.64Q929.36 55.27 932.50 58.73Q935.65 62.19 940.50 62.19L940.50 62.19Q943.95 62.19 946.34 60.79Q948.73 59.38 950.52 57.06L950.52 57.06L954.49 60.15Q949.71 67.50 940.15 67.50ZM939.34 33.40L939.34 33.40Q935.40 33.40 932.73 36.26Q930.06 39.13 929.43 44.30L929.43 44.30L948.48 44.30L948.48 43.80Q948.20 38.85 945.81 36.12Q943.42 33.40 939.34 33.40ZM960.93 47.95L960.93 47.46Q960.93 38.71 965.07 33.38Q969.22 28.05 975.94 28.05L975.94 28.05Q982.62 28.05 986.52 32.63L986.52 32.63L986.52 12.80L993.02 12.80L993.02 66.80L987.05 66.80L986.73 62.72Q982.83 67.50 975.87 67.50L975.87 67.50Q969.26 67.50 965.09 62.09Q960.93 56.67 960.93 47.95L960.93 47.95ZM967.43 48.20L967.43 48.20Q967.43 54.67 970.10 58.32Q972.77 61.98 977.48 61.98L977.48 61.98Q983.67 61.98 986.52 56.43L986.52 56.43L986.52 38.95Q983.60 33.57 977.55 33.57L977.55 33.57Q972.77 33.57 970.10 37.27Q967.43 40.96 967.43 48.20Z"/></svg>