<svg width="228.577" height="24.609" viewBox="0 0 228.577 24.609" xmlns="http://www.w3.org/2000/svg"><g id="svgGroup" stroke-linecap="round" fill-rule="evenodd" font-size="9pt" stroke="#000000" stroke-width="0.25mm" fill="#000000" style="stroke:#000000;stroke-width:0.25mm;fill:#000000"><path d="M 15.671 10.972 L 15.671 24.404 L 13.467 24.404 L 13.467 2.222 L 15.671 2.222 L 15.671 9.331 L 16.201 9.331 A 4.695 4.695 0 0 1 16.794 8.596 A 3.53 3.53 0 0 1 17.594 7.99 A 3.051 3.051 0 0 1 18.273 7.724 Q 18.908 7.554 19.773 7.554 A 7.008 7.008 0 0 1 20.829 7.628 Q 21.37 7.71 21.802 7.885 A 2.828 2.828 0 0 1 22.644 8.4 A 2.489 2.489 0 0 1 23.287 9.357 Q 23.584 10.113 23.584 11.228 L 23.584 24.404 L 21.396 24.404 L 21.396 11.04 Q 21.396 10.43 21.122 10.059 A 1.178 1.178 0 0 0 20.858 9.801 A 1.651 1.651 0 0 0 20.422 9.586 Q 19.991 9.441 19.348 9.42 A 6.87 6.87 0 0 0 19.124 9.417 A 6.539 6.539 0 0 0 17.896 9.523 Q 17.235 9.65 16.735 9.927 A 2.723 2.723 0 0 0 15.671 10.972 Z M 77.109 18.474 L 79.109 18.474 Q 79.082 19.103 79.082 19.65 A 20.665 20.665 0 0 0 79.083 19.918 A 65.602 65.602 0 0 0 79.091 20.384 Q 79.095 20.567 79.099 20.73 A 32.669 32.669 0 0 0 79.109 21.038 A 2.171 2.171 0 0 0 79.168 21.52 Q 79.245 21.832 79.423 22.05 A 1.186 1.186 0 0 0 79.767 22.336 Q 80.255 22.61 81.333 22.675 A 12.193 12.193 0 0 0 82.065 22.695 Q 83.757 22.695 84.449 22.336 A 1.31 1.31 0 0 0 85.134 21.446 A 2.166 2.166 0 0 0 85.193 21.038 A 71.685 71.685 0 0 0 85.216 20.766 Q 85.248 20.386 85.261 20.175 A 4.106 4.106 0 0 0 85.266 20.06 Q 85.273 19.845 85.266 19.522 A 19.189 19.189 0 0 0 85.261 19.363 A 3.233 3.233 0 0 0 85.186 18.822 Q 85.072 18.33 84.8 18.013 A 1.233 1.233 0 0 0 84.472 17.753 Q 83.984 17.473 83.022 17.329 L 81.023 16.868 Q 79.52 16.55 78.686 16.07 A 3.824 3.824 0 0 1 78.647 16.047 A 3.104 3.104 0 0 1 77.955 15.5 A 2.562 2.562 0 0 1 77.468 14.757 A 4.397 4.397 0 0 1 77.236 14.042 Q 77.099 13.469 77.058 12.749 Q 77.007 12.134 77.144 11.399 A 6.304 6.304 0 0 1 77.246 10.329 Q 77.483 9.081 78.263 8.442 A 2.961 2.961 0 0 1 79.109 7.976 Q 80.24 7.554 82.219 7.554 Q 84.399 7.554 85.523 8.101 A 2.644 2.644 0 0 1 86.039 8.425 A 2.827 2.827 0 0 1 86.856 9.556 Q 87.045 10.009 87.135 10.576 A 6.726 6.726 0 0 1 87.209 11.296 A 73.623 73.623 0 0 1 87.208 11.773 Q 87.206 12.097 87.201 12.467 A 16.763 16.763 0 0 1 87.189 12.938 Q 87.173 13.311 87.141 13.621 L 85.073 13.621 Q 85.159 13.022 85.15 12.253 Q 85.142 11.484 85.107 11.057 A 2.125 2.125 0 0 0 85.051 10.592 Q 84.981 10.307 84.826 10.104 A 1.115 1.115 0 0 0 84.484 9.81 Q 83.877 9.468 82.219 9.468 A 12.996 12.996 0 0 0 81.493 9.487 Q 80.427 9.546 79.959 9.798 A 1.214 1.214 0 0 0 79.938 9.81 A 1.234 1.234 0 0 0 79.377 10.49 Q 79.287 10.739 79.263 11.057 Q 79.246 11.463 79.215 11.738 A 4.863 4.863 0 0 1 79.211 11.766 A 2.732 2.732 0 0 0 79.198 11.921 Q 79.185 12.116 79.19 12.385 A 10.035 10.035 0 0 0 79.194 12.544 A 6.997 6.997 0 0 0 79.259 13.075 Q 79.306 13.358 79.374 13.604 A 1.269 1.269 0 0 0 79.784 14.236 A 1.7 1.7 0 0 0 79.955 14.364 Q 80.408 14.663 81.433 14.817 L 83.347 15.21 A 10.629 10.629 0 0 1 84.486 15.505 Q 85.674 15.89 86.343 16.492 A 3.131 3.131 0 0 1 86.389 16.534 A 2.815 2.815 0 0 1 87.136 17.746 Q 87.346 18.394 87.346 19.243 A 36.575 36.575 0 0 1 87.344 19.632 A 44.313 44.313 0 0 1 87.338 20.046 A 12.601 12.601 0 0 1 87.307 20.718 A 11.175 11.175 0 0 1 87.295 20.867 A 5.863 5.863 0 0 1 87.134 21.954 Q 86.981 22.558 86.695 23.013 A 2.748 2.748 0 0 1 86.039 23.738 A 3.22 3.22 0 0 1 85.162 24.197 Q 84.016 24.609 82.065 24.609 A 13.444 13.444 0 0 1 80.795 24.554 Q 79.047 24.387 78.246 23.721 A 2.852 2.852 0 0 1 77.432 22.573 Q 77.136 21.839 77.092 20.815 Q 77.058 20.286 77.05 19.628 Q 77.042 19.031 77.097 18.568 A 5.307 5.307 0 0 1 77.109 18.474 Z M 205.779 18.474 L 207.778 18.474 Q 207.751 19.103 207.751 19.65 A 20.665 20.665 0 0 0 207.753 19.918 A 65.602 65.602 0 0 0 207.76 20.384 Q 207.764 20.567 207.768 20.73 A 32.669 32.669 0 0 0 207.778 21.038 A 2.171 2.171 0 0 0 207.837 21.52 Q 207.915 21.832 208.092 22.05 A 1.186 1.186 0 0 0 208.436 22.336 Q 208.924 22.61 210.002 22.675 A 12.193 12.193 0 0 0 210.735 22.695 Q 212.427 22.695 213.119 22.336 A 1.31 1.31 0 0 0 213.803 21.446 A 2.166 2.166 0 0 0 213.862 21.038 A 71.685 71.685 0 0 0 213.886 20.766 Q 213.918 20.386 213.931 20.175 A 4.106 4.106 0 0 0 213.936 20.06 Q 213.943 19.845 213.935 19.522 A 19.189 19.189 0 0 0 213.931 19.363 A 3.233 3.233 0 0 0 213.856 18.822 Q 213.742 18.33 213.469 18.013 A 1.233 1.233 0 0 0 213.141 17.753 Q 212.653 17.473 211.692 17.329 L 209.692 16.868 Q 208.189 16.55 207.355 16.07 A 3.824 3.824 0 0 1 207.317 16.047 A 3.104 3.104 0 0 1 206.624 15.5 A 2.562 2.562 0 0 1 206.138 14.757 A 4.397 4.397 0 0 1 205.905 14.042 Q 205.768 13.469 205.728 12.749 Q 205.676 12.134 205.813 11.399 A 6.304 6.304 0 0 1 205.915 10.329 Q 206.152 9.081 206.932 8.442 A 2.961 2.961 0 0 1 207.779 7.976 Q 208.909 7.554 210.889 7.554 Q 213.069 7.554 214.192 8.101 A 2.644 2.644 0 0 1 214.708 8.425 A 2.827 2.827 0 0 1 215.526 9.556 Q 215.714 10.009 215.805 10.576 A 6.726 6.726 0 0 1 215.879 11.296 A 73.623 73.623 0 0 1 215.877 11.773 Q 215.875 12.097 215.87 12.467 A 16.763 16.763 0 0 1 215.858 12.938 Q 215.843 13.311 215.811 13.621 L 213.743 13.621 Q 213.828 13.022 213.82 12.253 Q 213.811 11.484 213.777 11.057 A 2.125 2.125 0 0 0 213.721 10.592 Q 213.651 10.307 213.495 10.104 A 1.115 1.115 0 0 0 213.153 9.81 Q 212.546 9.468 210.889 9.468 A 12.996 12.996 0 0 0 210.162 9.487 Q 209.097 9.546 208.629 9.798 A 1.214 1.214 0 0 0 208.607 9.81 A 1.234 1.234 0 0 0 208.047 10.49 Q 207.956 10.739 207.932 11.057 Q 207.916 11.463 207.884 11.738 A 4.863 4.863 0 0 1 207.881 11.766 A 2.732 2.732 0 0 0 207.867 11.921 Q 207.855 12.116 207.859 12.385 A 10.035 10.035 0 0 0 207.864 12.544 A 6.997 6.997 0 0 0 207.929 13.075 Q 207.975 13.358 208.043 13.604 A 1.269 1.269 0 0 0 208.454 14.236 A 1.7 1.7 0 0 0 208.624 14.364 Q 209.077 14.663 210.103 14.817 L 212.017 15.21 A 10.629 10.629 0 0 1 213.155 15.505 Q 214.344 15.89 215.012 16.492 A 3.131 3.131 0 0 1 215.059 16.534 A 2.815 2.815 0 0 1 215.805 17.746 Q 216.016 18.394 216.016 19.243 A 36.575 36.575 0 0 1 216.013 19.632 A 44.313 44.313 0 0 1 216.007 20.046 A 12.601 12.601 0 0 1 215.976 20.718 A 11.175 11.175 0 0 1 215.964 20.867 A 5.863 5.863 0 0 1 215.804 21.954 Q 215.651 22.558 215.364 23.013 A 2.748 2.748 0 0 1 214.708 23.738 A 3.22 3.22 0 0 1 213.832 24.197 Q 212.685 24.609 210.735 24.609 A 13.444 13.444 0 0 1 209.464 24.554 Q 207.716 24.387 206.915 23.721 A 2.852 2.852 0 0 1 206.102 22.573 Q 205.805 21.839 205.762 20.815 Q 205.728 20.286 205.719 19.628 Q 205.711 19.031 205.767 18.568 A 5.307 5.307 0 0 1 205.779 18.474 Z M 218.34 18.474 L 220.339 18.474 Q 220.312 19.103 220.312 19.65 A 20.665 20.665 0 0 0 220.314 19.918 A 65.602 65.602 0 0 0 220.321 20.384 Q 220.325 20.567 220.33 20.73 A 32.669 32.669 0 0 0 220.339 21.038 A 2.171 2.171 0 0 0 220.398 21.52 Q 220.476 21.832 220.653 22.05 A 1.186 1.186 0 0 0 220.997 22.336 Q 221.485 22.61 222.563 22.675 A 12.193 12.193 0 0 0 223.296 22.695 Q 224.988 22.695 225.68 22.336 A 1.31 1.31 0 0 0 226.364 21.446 A 2.166 2.166 0 0 0 226.423 21.038 A 71.685 71.685 0 0 0 226.447 20.766 Q 226.479 20.386 226.492 20.175 A 4.106 4.106 0 0 0 226.497 20.06 Q 226.504 19.845 226.496 19.522 A 19.189 19.189 0 0 0 226.492 19.363 A 3.233 3.233 0 0 0 226.417 18.822 Q 226.303 18.33 226.03 18.013 A 1.233 1.233 0 0 0 225.702 17.753 Q 225.214 17.473 224.253 17.329 L 222.253 16.868 Q 220.75 16.55 219.917 16.07 A 3.824 3.824 0 0 1 219.878 16.047 A 3.104 3.104 0 0 1 219.185 15.5 A 2.562 2.562 0 0 1 218.699 14.757 A 4.397 4.397 0 0 1 218.466 14.042 Q 218.329 13.469 218.289 12.749 Q 218.237 12.134 218.374 11.399 A 6.304 6.304 0 0 1 218.476 10.329 Q 218.713 9.081 219.493 8.442 A 2.961 2.961 0 0 1 220.34 7.976 Q 221.47 7.554 223.45 7.554 Q 225.63 7.554 226.753 8.101 A 2.644 2.644 0 0 1 227.269 8.425 A 2.827 2.827 0 0 1 228.087 9.556 Q 228.275 10.009 228.366 10.576 A 6.726 6.726 0 0 1 228.44 11.296 A 73.623 73.623 0 0 1 228.438 11.773 Q 228.436 12.097 228.431 12.467 A 16.763 16.763 0 0 1 228.419 12.938 Q 228.404 13.311 228.372 13.621 L 226.304 13.621 Q 226.389 13.022 226.381 12.253 Q 226.372 11.484 226.338 11.057 A 2.125 2.125 0 0 0 226.282 10.592 Q 226.212 10.307 226.056 10.104 A 1.115 1.115 0 0 0 225.714 9.81 Q 225.107 9.468 223.45 9.468 A 12.996 12.996 0 0 0 222.723 9.487 Q 221.658 9.546 221.19 9.798 A 1.214 1.214 0 0 0 221.168 9.81 A 1.234 1.234 0 0 0 220.608 10.49 Q 220.517 10.739 220.493 11.057 Q 220.477 11.463 220.445 11.738 A 4.863 4.863 0 0 1 220.442 11.766 A 2.732 2.732 0 0 0 220.428 11.921 Q 220.416 12.116 220.421 12.385 A 10.035 10.035 0 0 0 220.425 12.544 A 6.997 6.997 0 0 0 220.49 13.075 Q 220.536 13.358 220.604 13.604 A 1.269 1.269 0 0 0 221.015 14.236 A 1.7 1.7 0 0 0 221.185 14.364 Q 221.638 14.663 222.664 14.817 L 224.578 15.21 A 10.629 10.629 0 0 1 225.716 15.505 Q 226.905 15.89 227.573 16.492 A 3.131 3.131 0 0 1 227.62 16.534 A 2.815 2.815 0 0 1 228.366 17.746 Q 228.577 18.394 228.577 19.243 A 36.575 36.575 0 0 1 228.575 19.632 A 44.313 44.313 0 0 1 228.568 20.046 A 12.601 12.601 0 0 1 228.537 20.718 A 11.175 11.175 0 0 1 228.525 20.867 A 5.863 5.863 0 0 1 228.365 21.954 Q 228.212 22.558 227.925 23.013 A 2.748 2.748 0 0 1 227.269 23.738 A 3.22 3.22 0 0 1 226.393 24.197 Q 225.246 24.609 223.296 24.609 A 13.444 13.444 0 0 1 222.025 24.554 Q 220.277 24.387 219.476 23.721 A 2.852 2.852 0 0 1 218.663 22.573 Q 218.366 21.839 218.323 20.815 Q 218.289 20.286 218.28 19.628 Q 218.272 19.031 218.328 18.568 A 5.307 5.307 0 0 1 218.34 18.474 Z M 170.283 18.884 L 170.283 24.404 L 168.147 24.404 L 168.147 2.222 L 170.249 2.222 L 170.249 7.69 L 170.061 14.937 L 170.642 14.937 L 172.3 11.707 L 174.863 7.776 L 177.188 7.776 L 172.949 14.475 L 178.179 24.404 L 175.872 24.404 L 171.65 17.056 L 170.283 18.884 Z M 99.104 10.972 L 99.104 24.404 L 96.899 24.404 L 96.899 7.776 L 99.104 7.776 L 99.104 9.331 L 99.634 9.331 Q 100.164 8.477 101.027 8.015 Q 101.768 7.619 102.843 7.563 A 6.979 6.979 0 0 1 103.206 7.554 A 7.008 7.008 0 0 1 104.262 7.628 Q 104.802 7.71 105.235 7.885 A 2.828 2.828 0 0 1 106.077 8.4 A 2.489 2.489 0 0 1 106.719 9.357 Q 107.017 10.113 107.017 11.228 L 107.017 24.404 L 104.829 24.404 L 104.829 11.04 Q 104.829 10.43 104.554 10.059 A 1.178 1.178 0 0 0 104.291 9.801 A 1.651 1.651 0 0 0 103.855 9.586 Q 103.424 9.441 102.78 9.42 A 6.87 6.87 0 0 0 102.556 9.417 Q 101.36 9.417 100.454 9.827 A 3.403 3.403 0 0 0 99.728 10.265 A 2.67 2.67 0 0 0 99.104 10.972 Z M 182.075 10.972 L 182.075 24.404 L 179.871 24.404 L 179.871 7.776 L 182.075 7.776 L 182.075 9.331 L 182.605 9.331 Q 183.135 8.477 183.998 8.015 Q 184.739 7.619 185.814 7.563 A 6.979 6.979 0 0 1 186.177 7.554 A 7.008 7.008 0 0 1 187.233 7.628 Q 187.773 7.71 188.206 7.885 A 2.828 2.828 0 0 1 189.048 8.4 A 2.489 2.489 0 0 1 189.69 9.357 Q 189.988 10.113 189.988 11.228 L 189.988 24.404 L 187.8 24.404 L 187.8 11.04 Q 187.8 10.43 187.526 10.059 A 1.178 1.178 0 0 0 187.262 9.801 A 1.651 1.651 0 0 0 186.826 9.586 Q 186.395 9.441 185.752 9.42 A 6.87 6.87 0 0 0 185.527 9.417 Q 184.331 9.417 183.425 9.827 A 3.403 3.403 0 0 0 182.699 10.265 A 2.67 2.67 0 0 0 182.075 10.972 Z M 7.041 2.188 L 7.041 24.404 L 4.666 24.404 L 4.666 2.188 L 0 2.188 L 0 0 L 11.724 0 L 11.724 2.188 L 7.041 2.188 Z M 151.262 14.27 L 151.262 11.108 A 1.751 1.751 0 0 0 151.194 10.606 A 1.286 1.286 0 0 0 150.63 9.869 Q 149.998 9.468 148.425 9.468 A 8.875 8.875 0 0 0 147.708 9.495 Q 146.859 9.564 146.349 9.81 A 1.302 1.302 0 0 0 145.627 10.706 A 2.043 2.043 0 0 0 145.571 11.057 Q 145.545 11.384 145.539 11.927 A 31.24 31.24 0 0 0 145.537 12.279 A 30.818 30.818 0 0 0 145.542 12.84 Q 145.546 13.06 145.553 13.255 A 14.826 14.826 0 0 0 145.571 13.621 L 143.435 13.621 A 22.273 22.273 0 0 1 143.418 13.391 Q 143.396 13.074 143.374 12.651 A 68.947 68.947 0 0 1 143.367 12.51 Q 143.341 11.993 143.364 11.564 A 6.26 6.26 0 0 1 143.384 11.296 A 5.358 5.358 0 0 1 143.533 10.216 Q 143.698 9.562 144.039 9.08 A 2.779 2.779 0 0 1 144.674 8.434 Q 145.879 7.554 148.511 7.554 Q 150.712 7.554 151.836 8.166 A 2.605 2.605 0 0 1 152.33 8.511 A 2.881 2.881 0 0 1 153.083 9.631 Q 153.406 10.459 153.416 11.655 L 153.416 24.404 L 151.262 24.404 L 151.262 22.832 L 150.784 22.832 Q 150.356 23.687 149.562 24.139 A 2.924 2.924 0 0 1 148.887 24.411 Q 148.227 24.592 147.297 24.592 Q 145.252 24.592 144.251 23.803 A 2.547 2.547 0 0 1 144.213 23.772 A 2.92 2.92 0 0 1 143.376 22.619 Q 143.188 22.173 143.096 21.622 A 6.145 6.145 0 0 1 143.042 21.208 Q 143.025 20.867 142.999 20.525 A 3.874 3.874 0 0 1 142.988 20.235 A 3.596 3.596 0 0 1 143.008 19.858 A 5.168 5.168 0 0 1 143.278 18.539 A 4.131 4.131 0 0 1 143.965 17.303 A 3.732 3.732 0 0 1 144.635 16.675 Q 145.534 16.003 147.144 15.415 Q 148.101 15.073 149.16 14.8 Q 150.22 14.526 151.262 14.27 Z M 36.846 16.543 L 28.66 16.543 Q 28.66 17.62 28.677 18.73 A 81.851 81.851 0 0 0 28.722 20.445 A 91.505 91.505 0 0 0 28.745 21.038 A 1.974 1.974 0 0 0 28.814 21.538 A 1.236 1.236 0 0 0 29.463 22.336 A 2.426 2.426 0 0 0 29.951 22.516 Q 30.461 22.65 31.222 22.684 A 12.308 12.308 0 0 0 31.77 22.695 Q 33.005 22.695 33.672 22.479 A 1.925 1.925 0 0 0 34.009 22.336 A 1.306 1.306 0 0 0 34.626 21.571 Q 34.705 21.333 34.727 21.038 Q 34.774 20.164 34.733 18.699 A 62.312 62.312 0 0 0 34.727 18.474 L 36.846 18.474 A 5.042 5.042 0 0 1 36.901 18.926 Q 36.928 19.25 36.923 19.628 Q 36.914 20.286 36.88 20.815 A 6.164 6.164 0 0 1 36.722 21.913 Q 36.578 22.505 36.312 22.956 A 2.787 2.787 0 0 1 35.658 23.721 A 3.13 3.13 0 0 1 34.764 24.207 Q 33.667 24.609 31.838 24.609 A 14.143 14.143 0 0 1 30.454 24.547 Q 29.076 24.411 28.234 23.979 A 3.055 3.055 0 0 1 27.814 23.721 Q 26.736 22.926 26.554 21.228 A 6.422 6.422 0 0 1 26.523 20.815 Q 26.476 19.946 26.45 18.867 A 104.446 104.446 0 0 1 26.429 17.842 Q 26.404 16.133 26.429 14.407 Q 26.447 13.22 26.485 12.243 A 58.092 58.092 0 0 1 26.523 11.399 Q 26.609 9.331 27.848 8.442 Q 29.087 7.554 31.838 7.554 A 12.268 12.268 0 0 1 33.152 7.619 Q 34.479 7.762 35.286 8.222 A 2.952 2.952 0 0 1 35.598 8.425 Q 36.604 9.18 36.829 10.779 A 6.509 6.509 0 0 1 36.88 11.296 A 23.428 23.428 0 0 1 36.897 11.651 Q 36.92 12.201 36.943 13.152 A 201.575 201.575 0 0 1 36.948 13.381 A 26.206 26.206 0 0 1 36.955 13.984 Q 36.955 14.879 36.896 15.84 A 35.057 35.057 0 0 1 36.846 16.543 Z M 61.489 16.543 L 53.303 16.543 Q 53.303 17.62 53.32 18.73 A 81.851 81.851 0 0 0 53.365 20.445 A 91.505 91.505 0 0 0 53.389 21.038 A 1.974 1.974 0 0 0 53.457 21.538 A 1.236 1.236 0 0 0 54.106 22.336 A 2.426 2.426 0 0 0 54.595 22.516 Q 55.104 22.65 55.866 22.684 A 12.308 12.308 0 0 0 56.414 22.695 Q 57.648 22.695 58.316 22.479 A 1.925 1.925 0 0 0 58.652 22.336 A 1.306 1.306 0 0 0 59.27 21.571 Q 59.349 21.333 59.37 21.038 Q 59.418 20.164 59.377 18.699 A 62.312 62.312 0 0 0 59.37 18.474 L 61.489 18.474 A 5.042 5.042 0 0 1 61.545 18.926 Q 61.571 19.25 61.566 19.628 Q 61.558 20.286 61.523 20.815 A 6.164 6.164 0 0 1 61.366 21.913 Q 61.221 22.505 60.955 22.956 A 2.787 2.787 0 0 1 60.302 23.721 A 3.13 3.13 0 0 1 59.407 24.207 Q 58.31 24.609 56.482 24.609 A 14.143 14.143 0 0 1 55.098 24.547 Q 53.719 24.411 52.878 23.979 A 3.055 3.055 0 0 1 52.457 23.721 Q 51.38 22.926 51.197 21.228 A 6.422 6.422 0 0 1 51.167 20.815 Q 51.12 19.946 51.093 18.867 A 104.446 104.446 0 0 1 51.073 17.842 Q 51.047 16.133 51.073 14.407 Q 51.091 13.22 51.128 12.243 A 58.092 58.092 0 0 1 51.167 11.399 Q 51.252 9.331 52.491 8.442 Q 53.73 7.554 56.482 7.554 A 12.268 12.268 0 0 1 57.795 7.619 Q 59.123 7.762 59.93 8.222 A 2.952 2.952 0 0 1 60.242 8.425 Q 61.247 9.18 61.472 10.779 A 6.509 6.509 0 0 1 61.523 11.296 A 23.428 23.428 0 0 1 61.541 11.651 Q 61.563 12.201 61.586 13.152 A 201.575 201.575 0 0 1 61.592 13.381 A 26.206 26.206 0 0 1 61.599 13.984 Q 61.599 14.879 61.54 15.84 A 35.057 35.057 0 0 1 61.489 16.543 Z M 203.25 16.543 L 195.063 16.543 Q 195.063 17.62 195.081 18.73 A 81.851 81.851 0 0 0 195.125 20.445 A 91.505 91.505 0 0 0 195.149 21.038 A 1.974 1.974 0 0 0 195.218 21.538 A 1.236 1.236 0 0 0 195.867 22.336 A 2.426 2.426 0 0 0 196.355 22.516 Q 196.865 22.65 197.626 22.684 A 12.308 12.308 0 0 0 198.174 22.695 Q 199.409 22.695 200.076 22.479 A 1.925 1.925 0 0 0 200.413 22.336 A 1.306 1.306 0 0 0 201.03 21.571 Q 201.109 21.333 201.13 21.038 Q 201.178 20.164 201.137 18.699 A 62.312 62.312 0 0 0 201.13 18.474 L 203.25 18.474 A 5.042 5.042 0 0 1 203.305 18.926 Q 203.331 19.25 203.326 19.628 Q 203.318 20.286 203.284 20.815 A 6.164 6.164 0 0 1 203.126 21.913 Q 202.981 22.505 202.715 22.956 A 2.787 2.787 0 0 1 202.062 23.721 A 3.13 3.13 0 0 1 201.168 24.207 Q 200.071 24.609 198.242 24.609 A 14.143 14.143 0 0 1 196.858 24.547 Q 195.48 24.411 194.638 23.979 A 3.055 3.055 0 0 1 194.218 23.721 Q 193.14 22.926 192.958 21.228 A 6.422 6.422 0 0 1 192.927 20.815 Q 192.88 19.946 192.853 18.867 A 104.446 104.446 0 0 1 192.833 17.842 Q 192.808 16.133 192.833 14.407 Q 192.851 13.22 192.889 12.243 A 58.092 58.092 0 0 1 192.927 11.399 Q 193.013 9.331 194.252 8.442 Q 195.491 7.554 198.242 7.554 A 12.268 12.268 0 0 1 199.555 7.619 Q 200.883 7.762 201.69 8.222 A 2.952 2.952 0 0 1 202.002 8.425 Q 203.008 9.18 203.233 10.779 A 6.509 6.509 0 0 1 203.284 11.296 A 23.428 23.428 0 0 1 203.301 11.651 Q 203.324 12.201 203.347 13.152 A 201.575 201.575 0 0 1 203.352 13.381 A 26.206 26.206 0 0 1 203.359 13.984 Q 203.359 14.879 203.3 15.84 A 35.057 35.057 0 0 1 203.25 16.543 Z M 137.59 9.331 L 138.035 9.331 L 138.035 2.222 L 140.222 2.222 L 140.222 24.404 L 138.035 24.404 L 138.035 22.832 L 137.539 22.832 A 4.481 4.481 0 0 1 136.768 23.708 A 3.876 3.876 0 0 1 136.146 24.148 A 3.079 3.079 0 0 1 135.419 24.438 Q 135.06 24.534 134.629 24.577 A 7.334 7.334 0 0 1 133.916 24.609 A 6.935 6.935 0 0 1 132.858 24.534 Q 132.318 24.451 131.886 24.274 A 2.822 2.822 0 0 1 131.045 23.755 Q 130.105 22.9 130.054 20.935 A 80.964 80.964 0 0 1 129.996 19.465 A 105.57 105.57 0 0 1 129.96 17.859 Q 129.934 16.184 129.96 14.458 A 117.42 117.42 0 0 1 129.996 12.787 A 95.644 95.644 0 0 1 130.054 11.228 A 6.567 6.567 0 0 1 130.155 10.203 Q 130.377 9.008 131.071 8.4 A 3.04 3.04 0 0 1 132.097 7.821 Q 132.874 7.554 133.95 7.554 A 7.53 7.53 0 0 1 134.777 7.596 Q 135.2 7.643 135.551 7.741 A 3.093 3.093 0 0 1 136.18 7.99 Q 136.992 8.425 137.59 9.331 Z M 42.007 10.972 L 42.007 24.404 L 39.802 24.404 L 39.802 7.776 L 42.007 7.776 L 42.007 9.331 L 42.485 9.331 Q 42.93 8.477 43.665 8.015 Q 44.374 7.57 45.418 7.554 A 5.097 5.097 0 0 1 45.493 7.554 A 4.968 4.968 0 0 1 46.393 7.63 Q 46.896 7.723 47.289 7.929 A 2.342 2.342 0 0 1 47.928 8.417 A 2.427 2.427 0 0 1 48.389 9.179 Q 48.673 9.898 48.716 11 A 10.36 10.36 0 0 1 48.723 11.399 A 15.227 15.227 0 0 1 48.718 11.769 Q 48.71 12.097 48.689 12.493 A 16.57 16.57 0 0 1 48.649 13.055 Q 48.623 13.357 48.586 13.621 L 46.467 13.621 Q 46.501 13.45 46.51 13.022 L 46.527 12.168 Q 46.536 11.741 46.536 11.587 A 5.86 5.86 0 0 0 46.51 11.014 Q 46.453 10.443 46.274 10.105 A 1.076 1.076 0 0 0 46.108 9.869 Q 45.681 9.417 44.741 9.417 A 3.956 3.956 0 0 0 43.691 9.546 A 2.529 2.529 0 0 0 42.007 10.972 Z M 158.816 10.972 L 158.816 24.404 L 156.611 24.404 L 156.611 7.776 L 158.816 7.776 L 158.816 9.331 L 159.294 9.331 Q 159.739 8.477 160.474 8.015 Q 161.183 7.57 162.227 7.554 A 5.097 5.097 0 0 1 162.302 7.554 A 4.968 4.968 0 0 1 163.202 7.63 Q 163.706 7.723 164.098 7.929 A 2.342 2.342 0 0 1 164.738 8.417 A 2.427 2.427 0 0 1 165.198 9.179 Q 165.482 9.898 165.525 11 A 10.36 10.36 0 0 1 165.532 11.399 A 15.227 15.227 0 0 1 165.527 11.769 Q 165.519 12.097 165.498 12.493 A 16.57 16.57 0 0 1 165.458 13.055 Q 165.432 13.357 165.396 13.621 L 163.276 13.621 Q 163.311 13.45 163.319 13.022 L 163.336 12.168 Q 163.345 11.741 163.345 11.587 A 5.86 5.86 0 0 0 163.319 11.014 Q 163.262 10.443 163.083 10.105 A 1.076 1.076 0 0 0 162.917 9.869 Q 162.49 9.417 161.55 9.417 A 3.956 3.956 0 0 0 160.5 9.546 A 2.529 2.529 0 0 0 158.816 10.972 Z M 113.878 24.55 A 12.923 12.923 0 0 0 115.168 24.609 A 14.351 14.351 0 0 0 115.905 24.591 Q 118.125 24.477 119.091 23.644 Q 120.21 22.678 120.295 20.474 A 44.111 44.111 0 0 0 120.381 19.109 A 58.002 58.002 0 0 0 120.432 17.611 A 71.359 71.359 0 0 0 120.449 16.052 A 70.193 70.193 0 0 0 120.432 14.501 A 55.834 55.834 0 0 0 120.381 13.025 A 41.49 41.49 0 0 0 120.295 11.689 A 7.567 7.567 0 0 0 120.203 10.744 Q 120.103 10.142 119.903 9.662 A 3.006 3.006 0 0 0 119.091 8.511 Q 117.971 7.554 115.168 7.554 A 14.594 14.594 0 0 0 114.604 7.564 Q 113.162 7.62 112.217 7.971 A 3.309 3.309 0 0 0 111.246 8.511 Q 110.093 9.468 110.007 11.689 A 42.546 42.546 0 0 0 109.922 13.044 A 57.52 57.52 0 0 0 109.871 14.543 A 72.045 72.045 0 0 0 109.854 16.109 A 70.29 70.29 0 0 0 109.871 17.662 A 55.834 55.834 0 0 0 109.922 19.138 A 41.49 41.49 0 0 0 110.007 20.474 A 7.467 7.467 0 0 0 110.094 21.374 Q 110.34 22.902 111.238 23.652 A 2.847 2.847 0 0 0 111.704 23.966 Q 112.525 24.413 113.878 24.55 Z M 73.879 7.776 L 73.879 24.404 L 71.658 24.404 L 71.658 7.776 L 73.879 7.776 Z M 117.078 22.459 A 1.944 1.944 0 0 0 117.407 22.311 A 1.378 1.378 0 0 0 118.084 21.353 A 2.135 2.135 0 0 0 118.125 21.038 Q 118.296 18.372 118.296 16.082 Q 118.296 13.792 118.125 11.125 A 2.057 2.057 0 0 0 118.035 10.612 A 1.322 1.322 0 0 0 117.424 9.844 A 2.018 2.018 0 0 0 116.983 9.662 Q 116.505 9.521 115.766 9.482 A 11.443 11.443 0 0 0 115.168 9.468 Q 113.562 9.468 112.904 9.844 A 1.345 1.345 0 0 0 112.252 10.73 A 2.151 2.151 0 0 0 112.195 11.125 A 103.431 103.431 0 0 0 112.077 13.7 A 82.611 82.611 0 0 0 112.032 16.09 A 59.117 59.117 0 0 0 112.032 16.31 Q 112.032 17.688 112.096 19.19 A 83.635 83.635 0 0 0 112.195 21.038 A 1.829 1.829 0 0 0 112.288 21.566 A 1.324 1.324 0 0 0 112.921 22.311 A 2.325 2.325 0 0 0 113.423 22.509 Q 113.939 22.654 114.707 22.686 A 11.027 11.027 0 0 0 115.168 22.695 Q 116.402 22.695 117.078 22.459 Z M 138.035 21.191 L 138.035 10.972 Q 137.279 9.65 135.301 9.451 A 7.388 7.388 0 0 0 134.565 9.417 A 5.902 5.902 0 0 0 133.96 9.445 Q 133.222 9.522 132.831 9.801 A 1.254 1.254 0 0 0 132.355 10.487 Q 132.291 10.702 132.278 10.964 A 2.656 2.656 0 0 0 132.275 11.04 Q 132.173 13.604 132.19 16.244 Q 132.207 18.884 132.275 21.123 Q 132.301 21.763 132.612 22.143 A 1.262 1.262 0 0 0 132.831 22.354 Q 133.352 22.747 134.548 22.747 A 6.626 6.626 0 0 0 135.793 22.638 Q 136.469 22.509 136.979 22.223 A 2.758 2.758 0 0 0 138.035 21.191 Z M 151.245 21.277 L 151.245 16.099 A 30.653 30.653 0 0 0 149.777 16.444 A 33.746 33.746 0 0 0 149.562 16.5 Q 148.968 16.659 148.234 16.894 A 45.533 45.533 0 0 0 147.537 17.124 A 7.434 7.434 0 0 0 146.849 17.416 Q 146.175 17.746 145.828 18.131 A 1.721 1.721 0 0 0 145.691 18.303 A 3.01 3.01 0 0 0 145.196 19.559 A 3.684 3.684 0 0 0 145.161 19.858 Q 145.178 20.115 145.187 20.414 A 7.939 7.939 0 0 0 145.214 20.877 A 9.047 9.047 0 0 0 145.229 21.038 A 1.775 1.775 0 0 0 145.527 21.813 A 1.813 1.813 0 0 0 146.05 22.302 Q 146.675 22.699 147.613 22.741 A 5.082 5.082 0 0 0 147.844 22.747 Q 149.303 22.747 150.227 22.23 A 2.819 2.819 0 0 0 151.245 21.277 Z M 28.66 14.731 L 34.761 14.731 A 78.371 78.371 0 0 0 34.793 13.046 A 68.1 68.1 0 0 0 34.795 12.51 A 26.066 26.066 0 0 0 34.791 12.05 Q 34.78 11.408 34.734 11.103 A 2 2 0 0 0 34.727 11.057 A 1.825 1.825 0 0 0 34.613 10.538 A 1.337 1.337 0 0 0 33.992 9.835 A 2.253 2.253 0 0 0 33.509 9.645 Q 33.014 9.507 32.279 9.477 A 10.558 10.558 0 0 0 31.838 9.468 A 11.974 11.974 0 0 0 31.069 9.491 Q 30.311 9.54 29.823 9.693 A 2.203 2.203 0 0 0 29.471 9.835 Q 28.857 10.154 28.762 10.837 A 1.869 1.869 0 0 0 28.745 11.057 A 84.142 84.142 0 0 0 28.683 12.496 A 73.299 73.299 0 0 0 28.668 12.954 A 37.987 37.987 0 0 0 28.653 14.029 A 35.847 35.847 0 0 0 28.66 14.731 Z M 53.303 14.731 L 59.404 14.731 A 78.371 78.371 0 0 0 59.436 13.046 A 68.1 68.1 0 0 0 59.438 12.51 A 26.066 26.066 0 0 0 59.435 12.05 Q 59.423 11.408 59.377 11.103 A 2 2 0 0 0 59.37 11.057 A 1.825 1.825 0 0 0 59.257 10.538 A 1.337 1.337 0 0 0 58.635 9.835 A 2.253 2.253 0 0 0 58.153 9.645 Q 57.658 9.507 56.923 9.477 A 10.558 10.558 0 0 0 56.482 9.468 A 11.974 11.974 0 0 0 55.712 9.491 Q 54.954 9.54 54.466 9.693 A 2.203 2.203 0 0 0 54.115 9.835 Q 53.501 10.154 53.406 10.837 A 1.869 1.869 0 0 0 53.389 11.057 A 84.142 84.142 0 0 0 53.326 12.496 A 73.299 73.299 0 0 0 53.312 12.954 A 37.987 37.987 0 0 0 53.296 14.029 A 35.847 35.847 0 0 0 53.303 14.731 Z M 195.063 14.731 L 201.165 14.731 A 78.371 78.371 0 0 0 201.197 13.046 A 68.1 68.1 0 0 0 201.199 12.51 A 26.066 26.066 0 0 0 201.195 12.05 Q 201.184 11.408 201.138 11.103 A 2 2 0 0 0 201.13 11.057 A 1.825 1.825 0 0 0 201.017 10.538 A 1.337 1.337 0 0 0 200.396 9.835 A 2.253 2.253 0 0 0 199.913 9.645 Q 199.418 9.507 198.683 9.477 A 10.558 10.558 0 0 0 198.242 9.468 A 11.974 11.974 0 0 0 197.473 9.491 Q 196.714 9.54 196.226 9.693 A 2.203 2.203 0 0 0 195.875 9.835 Q 195.261 10.154 195.166 10.837 A 1.869 1.869 0 0 0 195.149 11.057 A 84.142 84.142 0 0 0 195.086 12.496 A 73.299 73.299 0 0 0 195.072 12.954 A 37.987 37.987 0 0 0 195.057 14.029 A 35.847 35.847 0 0 0 195.063 14.731 Z M 73.879 2.222 L 73.879 4.683 L 71.675 4.683 L 71.675 2.222 L 73.879 2.222 Z" vector-effect="non-scaling-stroke"/></g></svg>