<svg xmlns="http://www.w3.org/2000/svg" xmlns:xlink="http://www.w3.org/1999/xlink" width="666.94921875" height="84.375"><path fill="white" stroke="none" class="path" d="M41.31 15.61L41.31 21.16L24.86 21.16L24.86 66.80L18.14 66.80L18.14 21.16L1.72 21.16L1.72 15.61L41.31 15.61ZM54.39 12.80L54.39 33.36Q58.71 28.05 65.64 28.05L65.64 28.05Q77.70 28.05 77.80 41.66L77.80 41.66L77.80 66.80L71.30 66.80L71.30 41.63Q71.26 37.51 69.42 35.54Q67.57 33.57 63.67 33.57L63.67 33.57Q60.50 33.57 58.11 35.26Q55.72 36.95 54.39 39.69L54.39 39.69L54.39 66.80L47.88 66.80L47.88 12.80L54.39 12.80ZM103.32 67.50L103.32 67.50Q95.59 67.50 90.74 62.42Q85.89 57.34 85.89 48.83L85.89 48.83L85.89 47.64Q85.89 41.98 88.05 37.53Q90.21 33.08 94.10 30.57Q97.98 28.05 102.52 28.05L102.52 28.05Q109.93 28.05 114.05 32.94Q118.16 37.83 118.16 46.93L118.16 46.93L118.16 49.64L92.39 49.64Q92.53 55.27 95.68 58.73Q98.82 62.19 103.68 62.19L103.68 62.19Q107.12 62.19 109.51 60.79Q111.90 59.38 113.70 57.06L113.70 57.06L117.67 60.15Q112.89 67.50 103.32 67.50ZM102.52 33.40L102.52 33.40Q98.58 33.40 95.91 36.26Q93.23 39.13 92.60 44.30L92.60 44.30L111.66 44.30L111.66 43.80Q111.38 38.85 108.98 36.12Q106.59 33.40 102.52 33.40ZM144.07 28.55L144.07 34.59Q142.59 34.35 140.87 34.35L140.87 34.35Q134.47 34.35 132.19 39.80L132.19 39.80L132.19 66.80L125.68 66.80L125.68 28.76L132.01 28.76L132.12 33.15Q135.32 28.05 141.19 28.05L141.19 28.05Q143.09 28.05 144.07 28.55L144.07 28.55ZM165.16 67.50L165.16 67.50Q157.43 67.50 152.58 62.42Q147.73 57.34 147.73 48.83L147.73 48.83L147.73 47.64Q147.73 41.98 149.89 37.53Q152.05 33.08 155.94 30.57Q159.82 28.05 164.36 28.05L164.36 28.05Q171.77 28.05 175.89 32.94Q180 37.83 180 46.93L180 46.93L180 49.64L154.23 49.64Q154.37 55.27 157.52 58.73Q160.66 62.19 165.52 62.19L165.52 62.19Q168.96 62.19 171.35 60.79Q173.74 59.38 175.54 57.06L175.54 57.06L179.51 60.15Q174.73 67.50 165.16 67.50ZM164.36 33.40L164.36 33.40Q160.42 33.40 157.75 36.26Q155.07 39.13 154.44 44.30L154.44 44.30L173.50 44.30L173.50 43.80Q173.21 38.85 170.82 36.12Q168.43 33.40 164.36 33.40ZM212.41 28.76L212.41 66.80L205.91 66.80L205.91 28.76L212.41 28.76ZM205.38 18.67L205.38 18.67Q205.38 17.09 206.35 16.00Q207.32 14.91 209.21 14.91Q211.11 14.91 212.10 16.00Q213.08 17.09 213.08 18.67Q213.08 20.25 212.10 21.30Q211.11 22.36 209.21 22.36Q207.32 22.36 206.35 21.30Q205.38 20.25 205.38 18.67ZM244.97 56.71L244.97 56.71Q244.97 54.07 242.98 52.61Q241.00 51.15 236.06 50.10Q231.12 49.04 228.22 47.57Q225.32 46.09 223.93 44.05Q222.54 42.01 222.54 39.20L222.54 39.20Q222.54 34.52 226.49 31.29Q230.45 28.05 236.60 28.05L236.60 28.05Q243.07 28.05 247.10 31.39Q251.12 34.73 251.12 39.94L251.12 39.94L244.58 39.94Q244.58 37.27 242.31 35.33Q240.05 33.40 236.60 33.40L236.60 33.40Q233.05 33.40 231.05 34.95Q229.04 36.49 229.04 38.99L229.04 38.99Q229.04 41.34 230.91 42.54Q232.77 43.73 237.64 44.82Q242.51 45.91 245.53 47.43Q248.55 48.94 250.01 51.06Q251.47 53.19 251.47 56.25L251.47 56.25Q251.47 61.35 247.39 64.42Q243.32 67.50 236.81 67.50L236.81 67.50Q232.24 67.50 228.73 65.88Q225.21 64.27 223.22 61.37Q221.24 58.46 221.24 55.09L221.24 55.09L227.74 55.09Q227.92 58.36 230.36 60.28Q232.80 62.19 236.81 62.19L236.81 62.19Q240.50 62.19 242.74 60.70Q244.97 59.20 244.97 56.71ZM277.77 28.76L283.92 28.76L284.13 33.54Q288.49 28.05 295.52 28.05L295.52 28.05Q307.58 28.05 307.69 41.66L307.69 41.66L307.69 66.80L301.18 66.80L301.18 41.63Q301.15 37.51 299.30 35.54Q297.46 33.57 293.55 33.57L293.55 33.57Q290.39 33.57 288 35.26Q285.61 36.95 284.27 39.69L284.27 39.69L284.27 66.80L277.77 66.80L277.77 28.76ZM315.77 47.88L315.77 47.43Q315.77 41.84 317.97 37.37Q320.17 32.91 324.09 30.48Q328.01 28.05 333.04 28.05L333.04 28.05Q340.80 28.05 345.60 33.43Q350.40 38.81 350.40 47.74L350.40 47.74L350.40 48.20Q350.40 53.75 348.28 58.17Q346.15 62.58 342.19 65.04Q338.24 67.50 333.11 67.50L333.11 67.50Q325.37 67.50 320.57 62.12Q315.77 56.74 315.77 47.88L315.77 47.88ZM322.31 48.20L322.31 48.20Q322.31 54.53 325.25 58.36Q328.18 62.19 333.11 62.19L333.11 62.19Q338.06 62.19 340.98 58.31Q343.90 54.42 343.90 47.43L343.90 47.43Q343.90 41.17 340.93 37.28Q337.96 33.40 333.04 33.40L333.04 33.40Q328.22 33.40 325.27 37.23Q322.31 41.06 322.31 48.20ZM391.64 62.19L391.64 62.19Q395.12 62.19 397.72 60.08Q400.32 57.97 400.61 54.81L400.61 54.81L406.76 54.81Q406.58 58.08 404.51 61.03Q402.43 63.98 398.97 65.74Q395.51 67.50 391.64 67.50L391.64 67.50Q383.87 67.50 379.28 62.31Q374.70 57.13 374.70 48.13L374.70 48.13L374.70 47.04Q374.70 41.48 376.73 37.16Q378.77 32.84 382.59 30.45Q386.40 28.05 391.61 28.05L391.61 28.05Q398.00 28.05 402.24 31.89Q406.48 35.72 406.76 41.84L406.76 41.84L400.61 41.84Q400.32 38.14 397.81 35.77Q395.30 33.40 391.61 33.40L391.61 33.40Q386.65 33.40 383.92 36.97Q381.20 40.54 381.20 47.29L381.20 47.29L381.20 48.52Q381.20 55.09 383.91 58.64Q386.61 62.19 391.64 62.19ZM412.35 47.88L412.35 47.43Q412.35 41.84 414.54 37.37Q416.74 32.91 420.66 30.48Q424.58 28.05 429.61 28.05L429.61 28.05Q437.38 28.05 442.18 33.43Q446.98 38.81 446.98 47.74L446.98 47.74L446.98 48.20Q446.98 53.75 444.85 58.17Q442.72 62.58 438.77 65.04Q434.81 67.50 429.68 67.50L429.68 67.50Q421.95 67.50 417.15 62.12Q412.35 56.74 412.35 47.88L412.35 47.88ZM418.89 48.20L418.89 48.20Q418.89 54.53 421.82 58.36Q424.76 62.19 429.68 62.19L429.68 62.19Q434.64 62.19 437.55 58.31Q440.47 54.42 440.47 47.43L440.47 47.43Q440.47 41.17 437.50 37.28Q434.53 33.40 429.61 33.40L429.61 33.40Q424.79 33.40 421.84 37.23Q418.89 41.06 418.89 48.20ZM462.20 12.80L462.20 66.80L455.70 66.80L455.70 12.80L462.20 12.80ZM470.88 47.88L470.88 47.43Q470.88 41.84 473.08 37.37Q475.28 32.91 479.20 30.48Q483.12 28.05 488.14 28.05L488.14 28.05Q495.91 28.05 500.71 33.43Q505.51 38.81 505.51 47.74L505.51 47.74L505.51 48.20Q505.51 53.75 503.38 58.17Q501.26 62.58 497.30 65.04Q493.35 67.50 488.21 67.50L488.21 67.50Q480.48 67.50 475.68 62.12Q470.88 56.74 470.88 47.88L470.88 47.88ZM477.42 48.20L477.42 48.20Q477.42 54.53 480.36 58.36Q483.29 62.19 488.21 62.19L488.21 62.19Q493.17 62.19 496.09 58.31Q499.01 54.42 499.01 47.43L499.01 47.43Q499.01 41.17 496.04 37.28Q493.07 33.40 488.14 33.40L488.14 33.40Q483.33 33.40 480.38 37.23Q477.42 41.06 477.42 48.20ZM532.05 28.55L532.05 34.59Q530.58 34.35 528.86 34.35L528.86 34.35Q522.46 34.35 520.17 39.80L520.17 39.80L520.17 66.80L513.67 66.80L513.67 28.76L520.00 28.76L520.10 33.15Q523.30 28.05 529.17 28.05L529.17 28.05Q531.07 28.05 532.05 28.55L532.05 28.55ZM562.92 28.76L562.92 66.80L556.42 66.80L556.42 28.76L562.92 28.76ZM555.89 18.67L555.89 18.67Q555.89 17.09 556.86 16.00Q557.82 14.91 559.72 14.91Q561.62 14.91 562.61 16.00Q563.59 17.09 563.59 18.67Q563.59 20.25 562.61 21.30Q561.62 22.36 559.72 22.36Q557.82 22.36 556.86 21.30Q555.89 20.25 555.89 18.67ZM573.33 28.76L579.48 28.76L579.69 33.54Q584.05 28.05 591.08 28.05L591.08 28.05Q603.14 28.05 603.25 41.66L603.25 41.66L603.25 66.80L596.74 66.80L596.74 41.63Q596.71 37.51 594.86 35.54Q593.02 33.57 589.11 33.57L589.11 33.57Q585.95 33.57 583.56 35.26Q581.17 36.95 579.83 39.69L579.83 39.69L579.83 66.80L573.33 66.80L573.33 28.76ZM637.95 28.76L637.95 66.80L631.44 66.80L631.44 28.76L637.95 28.76ZM630.91 18.67L630.91 18.67Q630.91 17.09 631.88 16.00Q632.85 14.91 634.75 14.91Q636.64 14.91 637.63 16.00Q638.61 17.09 638.61 18.67Q638.61 20.25 637.63 21.30Q636.64 22.36 634.75 22.36Q632.85 22.36 631.88 21.30Q630.91 20.25 630.91 18.67ZM650.67 19.55L657.18 19.55L657.18 28.76L664.28 28.76L664.28 33.79L657.18 33.79L657.18 57.38Q657.18 59.66 658.13 60.80Q659.07 61.95 661.36 61.95L661.36 61.95Q662.48 61.95 664.45 61.52L664.45 61.52L664.45 66.80Q661.89 67.50 659.46 67.50L659.46 67.50Q655.10 67.50 652.89 64.86Q650.67 62.23 650.67 57.38L650.67 57.38L650.67 33.79L643.75 33.79L643.75 28.76L650.67 28.76L650.67 19.55Z"/></svg>