<svg xmlns="http://www.w3.org/2000/svg" xmlns:xlink="http://www.w3.org/1999/xlink" width="1205.82421875" height="84.375"><path fill="white" stroke="none" class="path" d="M20.11 66.80L5.94 66.80L5.94 15.61L20.39 15.61Q27.07 15.61 32.20 18.56Q37.34 21.52 40.13 26.96Q42.93 32.41 42.96 39.48L42.96 39.48L42.96 42.75Q42.96 49.99 40.17 55.44Q37.37 60.89 32.19 63.81Q27 66.73 20.11 66.80L20.11 66.80ZM20.57 21.16L12.69 21.16L12.69 61.28L19.79 61.28Q27.60 61.28 31.94 56.43Q36.28 51.57 36.28 42.61L36.28 42.61L36.28 39.62Q36.28 30.90 32.19 26.07Q28.09 21.23 20.57 21.16L20.57 21.16ZM85.57 66.80L80.68 53.44L59.24 53.44L54.42 66.80L47.46 66.80L67.01 15.61L72.91 15.61L92.50 66.80L85.57 66.80ZM69.96 23.94L61.28 47.88L78.68 47.88L69.96 23.94ZM129.27 66.80L118.16 46.09L106.14 46.09L106.14 66.80L99.35 66.80L99.35 15.61L116.30 15.61Q124.95 15.61 129.60 19.55Q134.26 23.48 134.26 31.01L134.26 31.01Q134.26 35.79 131.68 39.34Q129.09 42.89 124.49 44.65L124.49 44.65L136.51 66.38L136.51 66.80L129.27 66.80ZM106.14 21.16L106.14 40.57L116.51 40.57Q121.54 40.57 124.51 37.97Q127.48 35.37 127.48 31.01L127.48 31.01Q127.48 26.26 124.65 23.73Q121.82 21.20 116.47 21.16L116.47 21.16L106.14 21.16ZM174.87 66.80L156.73 43.00L150.47 49.50L150.47 66.80L143.72 66.80L143.72 15.61L150.47 15.61L150.47 40.92L173.21 15.61L181.37 15.61L161.23 38.21L182.95 66.80L174.87 66.80ZM228.20 15.61L228.20 66.80L221.41 66.80L195.64 27.35L195.64 66.80L188.86 66.80L188.86 15.61L195.64 15.61L221.48 55.23L221.48 15.61L228.20 15.61ZM269.12 37.62L269.12 43.14L246.94 43.14L246.94 61.28L272.71 61.28L272.71 66.80L240.19 66.80L240.19 15.61L272.36 15.61L272.36 21.16L246.94 21.16L246.94 37.62L269.12 37.62ZM296.19 43.98L296.19 43.98Q287.51 41.48 283.55 37.85Q279.60 34.21 279.60 28.86L279.60 28.86Q279.60 22.82 284.43 18.86Q289.27 14.91 297 14.91L297 14.91Q302.27 14.91 306.40 16.95Q310.54 18.98 312.80 22.57Q315.07 26.16 315.07 30.41L315.07 30.41L308.29 30.41Q308.29 25.77 305.33 23.12Q302.38 20.46 297 20.46L297 20.46Q292.01 20.46 289.21 22.66Q286.42 24.86 286.42 28.76L286.42 28.76Q286.42 31.89 289.07 34.05Q291.73 36.21 298.11 38.00Q304.49 39.80 308.09 41.96Q311.70 44.12 313.44 47.00Q315.18 49.89 315.18 53.79L315.18 53.79Q315.18 60.01 310.32 63.76Q305.47 67.50 297.35 67.50L297.35 67.50Q292.08 67.50 287.51 65.48Q282.94 63.46 280.46 59.94Q277.98 56.43 277.98 51.96L277.98 51.96L284.77 51.96Q284.77 56.60 288.19 59.29Q291.62 61.98 297.35 61.98L297.35 61.98Q302.70 61.98 305.54 59.80Q308.39 57.62 308.39 53.86Q308.39 50.10 305.75 48.04Q303.12 45.98 296.19 43.98ZM338.91 43.98L338.91 43.98Q330.22 41.48 326.27 37.85Q322.31 34.21 322.31 28.86L322.31 28.86Q322.31 22.82 327.15 18.86Q331.98 14.91 339.71 14.91L339.71 14.91Q344.99 14.91 349.12 16.95Q353.25 18.98 355.52 22.57Q357.79 26.16 357.79 30.41L357.79 30.41L351 30.41Q351 25.77 348.05 23.12Q345.09 20.46 339.71 20.46L339.71 20.46Q334.72 20.46 331.93 22.66Q329.13 24.86 329.13 28.76L329.13 28.76Q329.13 31.89 331.79 34.05Q334.44 36.21 340.82 38.00Q347.20 39.80 350.81 41.96Q354.41 44.12 356.15 47.00Q357.89 49.89 357.89 53.79L357.89 53.79Q357.89 60.01 353.04 63.76Q348.19 67.50 340.07 67.50L340.07 67.50Q334.79 67.50 330.22 65.48Q325.65 63.46 323.17 59.94Q320.70 56.43 320.70 51.96L320.70 51.96L327.48 51.96Q327.48 56.60 330.91 59.29Q334.34 61.98 340.07 61.98L340.07 61.98Q345.41 61.98 348.26 59.80Q351.11 57.62 351.11 53.86Q351.11 50.10 348.47 48.04Q345.83 45.98 338.91 43.98ZM391.61 15.61L391.61 66.80L384.86 66.80L384.86 15.61L391.61 15.61ZM419.03 43.98L419.03 43.98Q410.34 41.48 406.39 37.85Q402.43 34.21 402.43 28.86L402.43 28.86Q402.43 22.82 407.27 18.86Q412.10 14.91 419.84 14.91L419.84 14.91Q425.11 14.91 429.24 16.95Q433.37 18.98 435.64 22.57Q437.91 26.16 437.91 30.41L437.91 30.41L431.12 30.41Q431.12 25.77 428.17 23.12Q425.21 20.46 419.84 20.46L419.84 20.46Q414.84 20.46 412.05 22.66Q409.25 24.86 409.25 28.76L409.25 28.76Q409.25 31.89 411.91 34.05Q414.56 36.21 420.94 38.00Q427.32 39.80 430.93 41.96Q434.53 44.12 436.27 47.00Q438.01 49.89 438.01 53.79L438.01 53.79Q438.01 60.01 433.16 63.76Q428.31 67.50 420.19 67.50L420.19 67.50Q414.91 67.50 410.34 65.48Q405.77 63.46 403.29 59.94Q400.82 56.43 400.82 51.96L400.82 51.96L407.60 51.96Q407.60 56.60 411.03 59.29Q414.46 61.98 420.19 61.98L420.19 61.98Q425.53 61.98 428.38 59.80Q431.23 57.62 431.23 53.86Q431.23 50.10 428.59 48.04Q425.95 45.98 419.03 43.98ZM495.35 50.55L502.14 50.55Q501.19 58.68 496.14 63.09Q491.10 67.50 482.73 67.50L482.73 67.50Q473.66 67.50 468.19 61.00Q462.73 54.49 462.73 43.59L462.73 43.59L462.73 38.67Q462.73 31.54 465.28 26.12Q467.82 20.71 472.50 17.81Q477.18 14.91 483.33 14.91L483.33 14.91Q491.48 14.91 496.41 19.46Q501.33 24.01 502.14 32.06L502.14 32.06L495.35 32.06Q494.47 25.95 491.54 23.20Q488.60 20.46 483.33 20.46L483.33 20.46Q476.86 20.46 473.19 25.24Q469.51 30.02 469.51 38.85L469.51 38.85L469.51 43.80Q469.51 52.14 472.99 57.06Q476.47 61.98 482.73 61.98L482.73 61.98Q488.36 61.98 491.36 59.43Q494.37 56.88 495.35 50.55L495.35 50.55ZM550.72 39.62L550.72 42.86Q550.72 50.38 548.19 55.99Q545.66 61.59 541.02 64.55Q536.38 67.50 530.19 67.50L530.19 67.50Q524.14 67.50 519.47 64.53Q514.79 61.56 512.21 56.06Q509.63 50.55 509.55 43.31L509.55 43.31L509.55 39.62Q509.55 32.24 512.12 26.58Q514.69 20.92 519.38 17.91Q524.07 14.91 530.12 14.91L530.12 14.91Q536.27 14.91 540.97 17.88Q545.66 20.85 548.19 26.49Q550.72 32.13 550.72 39.62L550.72 39.62ZM544.01 43.35L544.01 39.55Q544.01 30.45 540.35 25.58Q536.70 20.71 530.12 20.71L530.12 20.71Q523.72 20.71 520.05 25.58Q516.38 30.45 516.27 39.09L516.27 39.09L516.27 42.86Q516.27 51.68 519.98 56.72Q523.69 61.77 530.19 61.77L530.19 61.77Q536.73 61.77 540.32 57.01Q543.90 52.24 544.01 43.35L544.01 43.35ZM560.85 15.61L569.57 15.61L586.30 57.38L603.04 15.61L611.79 15.61L611.79 66.80L605.04 66.80L605.04 46.86L605.67 25.35L588.87 66.80L583.70 66.80L566.93 25.45L567.60 46.86L567.60 66.80L560.85 66.80L560.85 15.61ZM642.52 46.76L630.46 46.76L630.46 66.80L623.71 66.80L623.71 15.61L642.59 15.61Q650.99 15.61 655.75 19.90Q660.52 24.19 660.52 31.25L660.52 31.25Q660.52 38.71 655.86 42.73Q651.20 46.76 642.52 46.76L642.52 46.76ZM630.46 21.16L630.46 41.24L642.59 41.24Q648 41.24 650.88 38.69Q653.77 36.14 653.77 31.32L653.77 31.32Q653.77 26.75 650.88 24.01Q648 21.27 642.97 21.16L642.97 21.16L630.46 21.16ZM675.91 15.61L675.91 61.28L700.17 61.28L700.17 66.80L669.13 66.80L669.13 15.61L675.91 15.61ZM736.80 37.62L736.80 43.14L714.62 43.14L714.62 61.28L740.39 61.28L740.39 66.80L707.87 66.80L707.87 15.61L740.04 15.61L740.04 21.16L714.62 21.16L714.62 37.62L736.80 37.62ZM784.86 15.61L784.86 21.16L768.41 21.16L768.41 66.80L761.70 66.80L761.70 21.16L745.28 21.16L745.28 15.61L784.86 15.61ZM821.39 37.62L821.39 43.14L799.21 43.14L799.21 61.28L824.98 61.28L824.98 66.80L792.46 66.80L792.46 15.61L824.63 15.61L824.63 21.16L799.21 21.16L799.21 37.62L821.39 37.62ZM840.16 15.61L840.16 61.28L864.42 61.28L864.42 66.80L833.38 66.80L833.38 15.61L840.16 15.61ZM866.04 15.61L879.33 41.31L892.69 15.61L900.35 15.61L882.70 47.71L882.70 66.80L875.95 66.80L875.95 47.71L858.30 15.61L866.04 15.61ZM938.95 66.80L924.79 66.80L924.79 15.61L939.23 15.61Q945.91 15.61 951.05 18.56Q956.18 21.52 958.97 26.96Q961.77 32.41 961.80 39.48L961.80 39.48L961.80 42.75Q961.80 49.99 959.01 55.44Q956.21 60.89 951.03 63.81Q945.84 66.73 938.95 66.80L938.95 66.80ZM939.41 21.16L931.54 21.16L931.54 61.28L938.64 61.28Q946.44 61.28 950.78 56.43Q955.13 51.57 955.13 42.61L955.13 42.61L955.13 39.62Q955.13 30.90 951.03 26.07Q946.93 21.23 939.41 21.16L939.41 21.16ZM1000.93 37.62L1000.93 43.14L978.75 43.14L978.75 61.28L1004.52 61.28L1004.52 66.80L972 66.80L972 15.61L1004.17 15.61L1004.17 21.16L978.75 21.16L978.75 37.62L1000.93 37.62ZM1041.15 38.67L1041.15 44.19L1019.67 44.19L1019.67 66.80L1012.92 66.80L1012.92 15.61L1044.63 15.61L1044.63 21.16L1019.67 21.16L1019.67 38.67L1041.15 38.67ZM1059.96 15.61L1059.96 66.80L1053.21 66.80L1053.21 15.61L1059.96 15.61ZM1111.64 15.61L1111.64 66.80L1104.86 66.80L1079.09 27.35L1079.09 66.80L1072.30 66.80L1072.30 15.61L1079.09 15.61L1104.93 55.23L1104.93 15.61L1111.64 15.61ZM1152.56 37.62L1152.56 43.14L1130.38 43.14L1130.38 61.28L1156.15 61.28L1156.15 66.80L1123.63 66.80L1123.63 15.61L1155.80 15.61L1155.80 21.16L1130.38 21.16L1130.38 37.62L1152.56 37.62ZM1178.72 66.80L1164.55 66.80L1164.55 15.61L1179 15.61Q1185.68 15.61 1190.81 18.56Q1195.95 21.52 1198.74 26.96Q1201.54 32.41 1201.57 39.48L1201.57 39.48L1201.57 42.75Q1201.57 49.99 1198.78 55.44Q1195.98 60.89 1190.79 63.81Q1185.61 66.73 1178.72 66.80L1178.72 66.80ZM1179.18 21.16L1171.30 21.16L1171.30 61.28L1178.40 61.28Q1186.21 61.28 1190.55 56.43Q1194.89 51.57 1194.89 42.61L1194.89 42.61L1194.89 39.62Q1194.89 30.90 1190.79 26.07Q1186.70 21.23 1179.18 21.16L1179.18 21.16Z"/></svg>